<?xml version="1.0" encoding="utf-8"?>
<!-- Generator: Adobe Illustrator 16.0.0, SVG Export Plug-In . SVG Version: 6.00 Build 0)  -->
<!DOCTYPE svg PUBLIC "-//W3C//DTD SVG 1.1//EN" "http://www.w3.org/Graphics/SVG/1.1/DTD/svg11.dtd">
<svg version="1.1" id="Layer_1" xmlns="http://www.w3.org/2000/svg" xmlns:xlink="http://www.w3.org/1999/xlink" x="0px" y="0px"
	 width="269.917px" height="74.479px" viewBox="0 0 269.917 74.479" enable-background="new 0 0 269.917 74.479"
	 xml:space="preserve">
<g>
	<g>
		<path fill="#007337" d="M37.536,8.772c28.681,6.397,52.034,5.662,79.725-0.567c50.205-11.296,49.125,69.461,0,60.891
			c-27.262-4.756-51.56-6.365-79.725,0C-11.259,80.124-13.402-2.591,37.536,8.772L37.536,8.772z"/>
	</g>
	<g>
		<path fill="#FFFFFF" d="M131.749,23.499l-3.075,6.938h-7.412c-0.957,0-1.604,0.07-1.938,0.225c-0.334,0.145-0.6,0.423-0.779,0.83
			l-0.389,0.837c-0.078,0.157-0.132,0.294-0.171,0.422c-0.04,0.127-0.055,0.229-0.055,0.327c0,0.542,1.02,1.146,3.061,1.802
			c0.802,0.264,1.432,0.471,1.891,0.63c2.251,0.79,3.769,1.548,4.563,2.257c0.786,0.701,1.184,1.578,1.184,2.623
			c0,0.391-0.063,0.861-0.195,1.404c-0.132,0.541-0.311,1.084-0.56,1.61l-2.827,6.611c-0.832,1.93-1.946,3.262-3.316,3.986
			c-1.379,0.727-3.971,1.084-7.771,1.084H99.563l3.099-6.939h9.818c1.744,0,2.889-0.145,3.435-0.422
			c0.536-0.279,0.956-0.807,1.261-1.586l0.708-1.684c0.109-0.23,0.187-0.463,0.241-0.679c0.055-0.217,0.078-0.407,0.078-0.559
			c0-0.814-1.145-1.619-3.441-2.434c-0.553-0.187-0.974-0.334-1.284-0.447c-2.569-0.935-4.166-1.674-4.789-2.215
			c-0.622-0.543-0.934-1.237-0.934-2.083c0-0.393,0.062-0.829,0.179-1.332c0.125-0.495,0.296-0.997,0.506-1.49l2.719-6.222
			c0.56-1.292,1.377-2.192,2.451-2.721c1.067-0.519,2.78-0.779,5.115-0.779h13.024V23.499z M52.605,30.51l-6.22,7.864h5.208
			l1.706-6.305c0-0.016,0.009-0.047,0.024-0.096c0.047-0.184,0.069-0.344,0.069-0.486c0-0.311-0.116-0.564-0.343-0.758
			c-0.097-0.085-0.211-0.151-0.338-0.201l0.061-0.285L52.605,30.51L52.605,30.51z M40.442,45.888l-7.254,9.172H21.054l25.939-31.452
			l7.174-0.088l0.006-0.021h1.872l0.96-0.015l-0.008,0.015h4.72c1.067,0,1.907,0.295,2.539,0.876
			c0.63,0.583,0.949,1.362,0.949,2.346c0,0.223-0.016,0.446-0.054,0.678c-0.039,0.23-0.103,0.486-0.172,0.75l-7.621,26.939h-10.29
			l2.491-9.197h-9.116L40.442,45.888L40.442,45.888z M86.034,50.486c-0.764,1.73-1.713,2.929-2.865,3.599s-2.943,1.006-5.372,1.006
			H57.811L71.817,23.5h19.846c1.37,0,2.445,0.312,3.231,0.934s1.176,1.482,1.176,2.575c0,0.279-0.039,0.583-0.125,0.909
			c-0.085,0.327-0.218,0.679-0.397,1.054l-3.674,8.318c-0.397,0.932-0.896,1.586-1.495,1.945c-0.6,0.367-1.464,0.55-2.594,0.55
			H87.56c0.545,0.358,0.949,0.768,1.206,1.229c0.257,0.463,0.389,0.988,0.389,1.578c0,0.279-0.046,0.592-0.139,0.941
			c-0.086,0.352-0.218,0.709-0.382,1.065L86.034,50.486L86.034,50.486z M76.723,48.148l1.775-4.203
			c0.046-0.094,0.085-0.196,0.108-0.301c0.023-0.11,0.031-0.225,0.031-0.328c0-0.403-0.155-0.758-0.467-1.045
			c-0.313-0.287-0.701-0.43-1.176-0.43h-2.646L71.59,48.15h5.133V48.148z M77.196,35.325h5.186l1.253-3.017
			c0.047-0.096,0.086-0.189,0.11-0.295c0.022-0.104,0.03-0.207,0.03-0.312c0-0.438-0.155-0.8-0.459-1.077
			c-0.304-0.279-0.693-0.423-1.161-0.423h-2.717L77.196,35.325L77.196,35.325z M111.215,23.499L97.208,55.085H86.464l14.007-31.587
			L111.215,23.499L111.215,23.499z"/>
	</g>
	<g>
		<path fill="#231F20" d="M149.643,9.323V4.9h-1.61V4.311h3.872V4.9h-1.61v4.424H149.643L149.643,9.323z M152.559,9.323V4.311h0.974
			l1.155,3.547c0.104,0.33,0.187,0.578,0.229,0.743c0.059-0.183,0.146-0.451,0.264-0.805l1.179-3.485h0.866v5.013h-0.621V5.131
			l-1.432,4.191h-0.582l-1.41-4.271v4.271L152.559,9.323L152.559,9.323z"/>
	</g>
</g>
<g>
	<rect x="174.333" y="13.836" fill="#E0E3E8" width="1" height="46.75"/>
</g>
<g>
	<path fill="#FFFFFF" stroke="#4A494A" stroke-width="0.216" stroke-miterlimit="2.6131" d="M232.521,0.218
		c20.462,0,37.021,16.594,37.021,37.021c0,20.463-16.593,37.022-37.021,37.022c-20.428,0-37.021-16.56-37.021-37.022
		C195.5,16.778,212.093,0.218,232.521,0.218L232.521,0.218z"/>
	
		<linearGradient id="SVGID_1_" gradientUnits="userSpaceOnUse" x1="-163.4653" y1="176.3899" x2="-140.063" y2="184.9077" gradientTransform="matrix(1.9081 1.9081 1.9081 -1.9081 177.5964 671.698)">
		<stop  offset="0.3119" style="stop-color:#FFFFFF"/>
		<stop  offset="0.3909" style="stop-color:#FFFEF7"/>
		<stop  offset="0.5116" style="stop-color:#FEFCE2"/>
		<stop  offset="0.6589" style="stop-color:#FEF9BF"/>
		<stop  offset="0.8272" style="stop-color:#FDF48F"/>
		<stop  offset="1" style="stop-color:#FCEF56"/>
	</linearGradient>
	<circle fill="url(#SVGID_1_)" cx="232.708" cy="37.427" r="33.594"/>
	<g>
		<path fill="#007338" d="M204.402,32.413c5.457,5.491,11.017,5.388,16.37-0.205c0.205,0.512,0.376,1.093,0.58,1.638
			c-4.604,5.048-12.927,4.673-17.599,0.307C203.958,33.539,204.129,33.028,204.402,32.413L204.402,32.413z"/>
		<path fill="#007338" d="M203.48,34.971c5.663,4.264,12.653,4.435,18.11-0.171c0.171,0.513,0.272,1.093,0.376,1.638
			c-5.321,4.4-14.119,3.649-18.86-0.068C203.244,35.789,203.276,35.619,203.48,34.971L203.48,34.971z"/>
		<path fill="#007338" d="M222.17,37.495c0.033,0.136,0.033,0.306,0.068,0.442c0.955,6.345-3.547,13.336-9.992,13.336
			c-5.56,0-10.573-6.65-9.448-13.336c0.035-0.137,0.068-0.307,0.068-0.442C209.245,41.246,215.929,41.724,222.17,37.495
			L222.17,37.495z"/>
		<path fill="#007338" d="M205.323,30.537c2.489,7.367,12.823,7.162,14.393-0.682c-0.988-1.875-2.184-3.41-3.718-4.502
			c3.684,3.854,1.568,9.378-2.489,9.105c-1.534-0.408-2.489-1.534-2.866-3.41c-0.068-0.273-0.068-0.443-0.032-0.716
			c0.067-0.785,0.306-1.467,0.749-1.706l0.103,0.035l-0.103,0.102c-0.717,0.955,0,2.251,0.818,1.535
			c-0.442-0.478-0.58-0.921-0.238-1.296h0.104l0.033,0.137c-0.238,1.091,0.683,1.193,0.646,0.204
			c-0.033-0.546,0.342-0.819,0.718-0.341c0.204,0.238,0.342,0.579,0.477,0.955c0.41-0.478,0.58-1.058,0.512-1.774
			c0.308-0.238,0.512-0.579,0.478-0.989l0.614-0.887c-0.342-0.067-0.683-0.102-0.988-0.067c0.136-0.409,0.341-0.818,0.614-1.159
			c-0.41,0-0.785,0.033-1.195,0.033c0.069-0.374,0.205-0.716,0.41-1.022l-1.331,0.341l0.273-0.75
			c-0.647,0.102-0.955,0.477-1.261,0.921C209.484,24.944,206.926,27.468,205.323,30.537L205.323,30.537z M212.485,26.172
			c0.204,0,0.342,0.171,0.342,0.375c0,0.205-0.171,0.375-0.342,0.375c-0.205,0-0.341-0.17-0.341-0.375
			C212.144,26.343,212.314,26.172,212.485,26.172L212.485,26.172z"/>
		<path d="M229.743,30.708v-0.171c0-0.374-0.069-0.647-0.171-0.75c-0.103-0.102-0.307-0.171-0.579-0.171
			c-0.172,0-0.479,0.035-0.854,0.103c-0.41,0.068-0.717,0.103-0.921,0.103c-0.546,0-0.989-0.17-1.296-0.478
			c-0.341-0.307-0.512-0.751-0.512-1.296c0-0.648,0.171-1.126,0.546-1.467s0.887-0.511,1.568-0.511c0.068,0,0.546,0.034,1.468,0.102
			c0.92,0.068,1.807,0.103,2.659,0.103c1.603,0,3.273-0.068,5.048-0.17c0.409,0,0.647,0,0.75,0c0.682,0,1.228,0.17,1.568,0.477
			s0.545,0.818,0.545,1.433c0,0.579-0.169,1.023-0.477,1.364c-0.341,0.341-0.75,0.512-1.295,0.512c-0.206,0-0.513-0.034-0.888-0.103
			c-0.408-0.068-0.682-0.102-0.853-0.102c-0.307,0-0.512,0.033-0.647,0.136c-0.104,0.103-0.171,0.375-0.171,0.853v10.027
			c0,0.308,0.067,0.511,0.171,0.613c0.102,0.102,0.306,0.171,0.613,0.171c0.17,0,0.443-0.034,0.853-0.103s0.716-0.103,0.922-0.103
			c0.511,0,0.954,0.171,1.295,0.478c0.341,0.341,0.477,0.751,0.477,1.331c0,0.647-0.169,1.16-0.545,1.5
			c-0.375,0.342-0.887,0.546-1.568,0.546c-0.068,0-0.546-0.068-1.467-0.138c-0.921-0.102-1.808-0.136-2.66-0.136
			c-1.604,0-3.308,0.069-5.081,0.239c-0.41,0.034-0.683,0.067-0.751,0.067c-0.683,0-1.193-0.171-1.568-0.477
			c-0.341-0.341-0.547-0.818-0.547-1.466c0-0.581,0.171-1.023,0.512-1.364c0.342-0.342,0.785-0.513,1.331-0.513
			c0.204,0,0.478,0.034,0.853,0.103s0.682,0.103,0.854,0.103c0.307,0,0.51-0.068,0.613-0.138c0.102-0.102,0.17-0.374,0.17-0.852
			v-9.856H229.743z M249.727,30.333v2.523c0,0.308,0.068,0.512,0.206,0.546c0.135,0.068,0.408,0.103,0.886,0.103
			c1.262,0,2.184-0.17,2.763-0.443c0.579-0.308,0.887-0.784,0.887-1.433c0-0.682-0.239-1.159-0.75-1.466
			c-0.478-0.308-1.297-0.444-2.388-0.444c-0.647,0-1.092,0.034-1.297,0.137C249.83,29.89,249.727,30.061,249.727,30.333
			L249.727,30.333z M244.646,30.674c0-0.478-0.069-0.75-0.171-0.887c-0.102-0.102-0.308-0.171-0.58-0.171
			c-0.17,0-0.443,0.035-0.783,0.103c-0.342,0.068-0.581,0.103-0.751,0.103c-0.443,0-0.785-0.17-1.058-0.478
			c-0.271-0.307-0.409-0.717-0.409-1.228c0-0.648,0.171-1.159,0.479-1.501c0.307-0.341,0.784-0.511,1.397-0.511
			c0.068,0,0.239,0,0.546,0.033c1.842,0.137,3.717,0.205,5.626,0.205c0.41,0,1.229-0.035,2.389-0.103
			c1.16-0.068,2.114-0.103,2.83-0.103c1.909,0,3.377,0.409,4.4,1.228s1.569,1.979,1.569,3.513c0,1.16-0.342,2.081-1.023,2.729
			c-0.683,0.648-1.706,1.023-3.07,1.159c1.568,0.205,2.763,0.683,3.581,1.434c0.785,0.784,1.194,1.808,1.194,3.138
			c0,1.842-0.649,3.273-1.979,4.229c-1.33,0.955-3.273,1.431-5.798,1.431c-0.751,0-1.808-0.033-3.24-0.102
			c-1.398-0.067-2.456-0.102-3.103-0.102c-0.718,0-1.502,0.034-2.319,0.137c-0.853,0.102-1.33,0.136-1.468,0.136
			c-0.681,0-1.158-0.171-1.5-0.478c-0.341-0.307-0.479-0.818-0.479-1.467c0-0.545,0.138-0.988,0.445-1.329
			c0.307-0.342,0.682-0.479,1.158-0.479c0.205,0,0.443,0.034,0.785,0.068c0.307,0.068,0.545,0.068,0.648,0.068
			c0.307,0,0.511-0.035,0.612-0.137c0.104-0.103,0.138-0.342,0.138-0.716v-0.137v-9.788H244.646z M249.727,40.531
			c0,0.307,0.137,0.511,0.375,0.612c0.239,0.103,0.887,0.137,1.91,0.137c1.125,0,1.944-0.17,2.489-0.546
			c0.512-0.374,0.784-0.955,0.784-1.739c0-0.75-0.306-1.33-0.954-1.671c-0.613-0.375-1.568-0.546-2.83-0.546
			c-0.785,0-1.263,0.034-1.468,0.104c-0.204,0.067-0.307,0.307-0.307,0.647V40.531L249.727,40.531z"/>
		<path d="M230.356,47.386h-3.207v2.797h3.207v-0.99h-1.672v-0.749h2.694v1.535c0,0.408-0.068,0.682-0.238,0.817
			c-0.137,0.137-0.443,0.206-0.886,0.206h-3.07c-0.444,0-0.717-0.069-0.887-0.206c-0.136-0.136-0.239-0.409-0.239-0.817v-2.32
			c0-0.409,0.068-0.683,0.239-0.818c0.136-0.137,0.442-0.205,0.887-0.205h3.07c0.408,0,0.716,0.068,0.851,0.205
			c0.138,0.136,0.239,0.409,0.239,0.784v0.103l-0.988,0.171V47.386L230.356,47.386z M236.87,47.386h-2.319v1.228h2.319
			c0.171,0,0.308-0.035,0.375-0.068c0.068-0.068,0.103-0.137,0.103-0.272v-0.546c0-0.136-0.033-0.204-0.103-0.272
			C237.177,47.386,237.041,47.386,236.87,47.386L236.87,47.386z M233.529,51.035v-4.435h3.784c0.341,0,0.613,0.068,0.751,0.205
			c0.17,0.137,0.238,0.341,0.238,0.648v1.057c0,0.307-0.068,0.512-0.238,0.648c-0.171,0.136-0.41,0.204-0.751,0.204h-0.58
			l2.047,1.672h-1.467l-1.773-1.672h-0.989v1.672H233.529L233.529,51.035z M240.314,47.658c0-0.409,0.068-0.683,0.239-0.818
			c0.137-0.137,0.443-0.205,0.887-0.205h3.274c0.443,0,0.716,0.068,0.886,0.205c0.138,0.136,0.239,0.409,0.239,0.818v2.32
			c0,0.408-0.068,0.682-0.239,0.817c-0.136,0.137-0.442,0.206-0.886,0.206h-3.274c-0.443,0-0.716-0.069-0.887-0.206
			c-0.137-0.136-0.239-0.409-0.239-0.817V47.658L240.314,47.658z M241.337,50.216h3.41v-2.795h-3.41V50.216L241.337,50.216z
			 M248.978,46.601v3.582h2.933v-3.582h1.022v3.378c0,0.408-0.068,0.682-0.238,0.817c-0.137,0.137-0.443,0.206-0.887,0.206h-2.763
			c-0.443,0-0.716-0.069-0.887-0.206c-0.137-0.136-0.239-0.409-0.239-0.817v-3.378H248.978L248.978,46.601z M258.561,47.386h-2.319
			v1.159h2.319c0.171,0,0.307-0.034,0.374-0.068c0.068-0.068,0.104-0.137,0.104-0.272v-0.478c0-0.136-0.035-0.204-0.104-0.272
			C258.833,47.386,258.732,47.386,258.561,47.386L258.561,47.386z M255.219,51.035v-4.435h3.784c0.342,0,0.614,0.068,0.752,0.205
			c0.17,0.137,0.237,0.341,0.237,0.648v0.989c0,0.306-0.067,0.511-0.237,0.647c-0.171,0.137-0.41,0.204-0.752,0.204h-2.762v1.74
			H255.219L255.219,51.035z"/>
	</g>
	<path d="M261.563,5.641V0.866h-1.774V0.218h4.264v0.648h-1.774v4.774H261.563L261.563,5.641z M264.767,5.641V0.218h1.058
		l1.296,3.819c0.103,0.342,0.204,0.615,0.273,0.819c0.067-0.204,0.17-0.478,0.272-0.853l1.296-3.752h0.955v5.389h-0.682V1.105
		l-1.569,4.536h-0.647l-1.569-4.604v4.604H264.767L264.767,5.641z"/>
</g>
</svg>
