<?xml version="1.0" encoding="utf-8"?>
<!-- Generator: Adobe Illustrator 16.0.0, SVG Export Plug-In . SVG Version: 6.00 Build 0)  -->
<!DOCTYPE svg PUBLIC "-//W3C//DTD SVG 1.1//EN" "http://www.w3.org/Graphics/SVG/1.1/DTD/svg11.dtd">
<svg version="1.1" id="Layer_1" xmlns="http://www.w3.org/2000/svg" xmlns:xlink="http://www.w3.org/1999/xlink" x="0px" y="0px"
	 width="32px" height="32px" viewBox="0 0 32 32" enable-background="new 0 0 32 32" xml:space="preserve">
<g id="icomoon-ignore">
</g>
<g>
	<path fill="#FFFFFF" d="M25.074,21.375v-8.568c0-4.462-3.229-8.162-7.475-8.915V3.211c0-0.589-0.478-1.066-1.065-1.066h-1.066
		c-0.589,0-1.066,0.477-1.066,1.066v0.684c-4.237,0.761-7.453,4.458-7.453,8.912v8.568l-3.742,3.029v1.729h25.59v-1.729
		l-3.721-3.029H25.074z M27.729,25.066H4.272v-0.154l3.742-3.029v-9.077c0-4.41,3.587-7.997,7.997-7.997
		c4.409,0,7.997,3.587,7.997,7.997v9.075l3.721,3.029v0.154V25.066z"/>
	<path fill="#FFFFFF" d="M15.999,29.855c1.474,0,2.669-1.191,2.669-2.666h-5.335C13.334,28.663,14.528,29.855,15.999,29.855
		L15.999,29.855z"/>
</g>
</svg>
