<?xml version="1.0" encoding="utf-8"?>
<!-- Generator: Adobe Illustrator 16.0.0, SVG Export Plug-In . SVG Version: 6.00 Build 0)  -->
<!DOCTYPE svg PUBLIC "-//W3C//DTD SVG 1.1//EN" "http://www.w3.org/Graphics/SVG/1.1/DTD/svg11.dtd">
<svg version="1.1" id="OBJECTS" xmlns="http://www.w3.org/2000/svg" xmlns:xlink="http://www.w3.org/1999/xlink" x="0px" y="0px"
	 width="890.229px" height="575.018px" viewBox="0 0 890.229 575.018" enable-background="new 0 0 890.229 575.018"
	 xml:space="preserve">
<g>
	<g>
		<g>
			<path fill-rule="evenodd" clip-rule="evenodd" fill="#D2EAF9" d="M59.08,558.33c-72.193-41.943-80.793-153.26-11.535-210.031
				c92.826-76.092,13.839-143.181,11.535-212.622C56.896,69.869,90.588-8.929,244.23,0.823
				c153.639,9.753,267.99,124.984,465.618,41.099c135.854-57.667,212.048,91.481,160.863,219.949
				c-51.184,128.47-88.564,140.047-69.086,224.508c19.479,84.457-85.474,84.254-112.906,85.389
				C661.285,572.904,59.08,558.33,59.08,558.33z"/>
			<g>
				<path fill-rule="evenodd" clip-rule="evenodd" fill="#FFFFFF" d="M311.868,121.132c-2.282-0.378-4.521-0.415-6.68-0.254
					c0-0.027,0.007-0.05,0.007-0.077c0-3.624-2.978-6.558-6.65-6.558c-0.078,0-0.149,0.019-0.227,0.021
					c0.139-0.789,0.227-1.597,0.227-2.426c0-7.251-5.533-13.219-12.661-14.045c0.468-1.954,0.739-3.98,0.739-6.072
					c0-14.617-12.015-26.464-26.837-26.464c-8.832,0-16.644,4.227-21.535,10.722c-2.55-1.235-5.403-1.951-8.438-1.951
					c-2.292,0-4.479,0.42-6.52,1.146c0.053-0.738,0.115-1.472,0.115-2.225c0-17.256-14.187-31.245-31.686-31.245
					c-17.497,0-31.685,13.989-31.685,31.245c0,0.89,0.061,1.765,0.136,2.636c-0.564-0.154-1.149-0.262-1.764-0.262
					c-2.785,0-5.161,1.692-6.152,4.085c-1.545-0.395-3.152-0.627-4.819-0.627c-10.586,0-19.169,8.463-19.169,18.905
					c0,2.06,0.345,4.039,0.961,5.896c-0.361-0.06-0.728-0.11-1.106-0.11c-2.687,0-4.985,1.58-6.035,3.837
					c-2.458-2.37-5.818-3.837-9.526-3.837c-7.532,0-13.638,6.021-13.638,13.448c0,0.005,0.003,0.01,0.003,0.016
					c-0.943-0.506-2.01-0.82-3.159-0.82c-2.479,0-4.619,1.356-5.763,3.344c-0.677-0.208-15.384-4.574-27.469,1.912
					c-9.521,5.11-11.624,13.803-11.624,13.803h272.971C323.884,135.175,325.014,123.304,311.868,121.132z M163.463,87.024
					l-0.138,0.081c-0.111-0.164-0.238-0.313-0.355-0.47c0.071-0.065,0.142-0.125,0.209-0.194
					C163.274,86.635,163.363,86.832,163.463,87.024z"/>
				<ellipse fill-rule="evenodd" clip-rule="evenodd" fill="#FFFFFF" cx="393.42" cy="100.48" rx="12.375" ry="12.204"/>
				<ellipse fill-rule="evenodd" clip-rule="evenodd" fill="#FFFFFF" cx="820.419" cy="140.717" rx="12.376" ry="12.206"/>
				<ellipse fill-rule="evenodd" clip-rule="evenodd" fill="#A8D3F1" cx="557.79" cy="34.434" rx="12.376" ry="12.204"/>
				<ellipse fill-rule="evenodd" clip-rule="evenodd" fill="#A8D3F1" cx="756.693" cy="364.509" rx="12.375" ry="12.204"/>
				<path fill-rule="evenodd" clip-rule="evenodd" fill="#A8D3F1" d="M147.779,205.266c0,6.74-5.541,12.203-12.376,12.203
					c-6.832,0-12.376-5.463-12.376-12.203c0-6.739,5.544-12.204,12.376-12.204C142.238,193.062,147.779,198.527,147.779,205.266z"/>
				<ellipse fill-rule="evenodd" clip-rule="evenodd" fill="#A8D3F1" cx="263.248" cy="315.331" rx="7.105" ry="7.006"/>
				<ellipse fill-rule="evenodd" clip-rule="evenodd" fill="#A8D3F1" cx="545.414" cy="148.494" rx="7.104" ry="7.006"/>
				<path fill-rule="evenodd" clip-rule="evenodd" fill="#FFFFFF" d="M568.188,257.224c0,3.871-3.177,7.006-7.104,7.006
					c-3.923,0-7.103-3.135-7.103-7.006c0-3.868,3.18-7.004,7.103-7.004C565.012,250.219,568.188,253.355,568.188,257.224z"/>
				<ellipse fill-rule="evenodd" clip-rule="evenodd" fill="#FFFFFF" cx="278.578" cy="198.375" rx="7.105" ry="7.004"/>
				<ellipse fill-rule="evenodd" clip-rule="evenodd" fill="#FFFFFF" cx="791.269" cy="253.336" rx="7.105" ry="7.005"/>
			</g>
		</g>
		<path fill-rule="evenodd" clip-rule="evenodd" fill="#FFE500" d="M125.494,560.516c0,0-25.751-33.6-7.588-34.057
			c0,0-39.761-75.585-6.486-69.577c0,0-27.225-78.784,10.414-66.979c0,0,5.379-44.467,21.271-38.566
			c15.894,5.904,5.108,45.037,5.108,45.037s29.328,6.296-8.968,60.509c0,0,34.509-7.611-5.449,67.31c0,0,17.398-0.908,2.57,36.324
			H125.494z"/>
		<g>
			<g>
				<path fill="#C9B649" d="M132.831,565.213c-0.594,0-1.142-0.393-1.31-0.994c-22.282-79.529,3.993-187.464,4.261-188.544
					c0.182-0.731,0.922-1.168,1.65-0.993c0.731,0.179,1.176,0.916,0.995,1.648c-0.268,1.073-26.369,108.321-4.282,187.152
					c0.202,0.727-0.219,1.477-0.944,1.68C133.077,565.197,132.955,565.213,132.831,565.213z"/>
			</g>
		</g>
		<path fill-rule="evenodd" clip-rule="evenodd" fill="#FFEA32" d="M103.479,558.982c-23.017-7.508-16.061-20.26-11.975-21.168
			c4.087-0.912-57.666-39.277-25.426-48.472c0,0-38.767-32.104-24.976-48.018c14.758-17.027,44.953,19.072,49.493,37.802
			c0,0,26.385-20.439,20.431,44.268c0,0,23.077-11.633,7.592,37.121L103.479,558.982z"/>
		<path fill-rule="evenodd" clip-rule="evenodd" fill="#DEC600" d="M144.278,560.516c0,0,34.344-39.75,11.919-36.27
			c0,0,52.783-53.642,20.432-54.32c0,0,44.612-45.628,17.709-60.271c-26.706-14.537-35.077,53.806-35.077,53.806
			s-32.221-22.136-19.75,55.166c0,0-22.477-8.852-3.067,41.207L144.278,560.516z"/>
		<g>
			<path fill="#C9B649" d="M114.956,570.719c-0.611,0-1.168-0.418-1.321-1.039c-0.047-0.186-4.736-19.104-14.01-42.258
				c-8.534-21.314-22.806-50.681-42.327-69.561c-0.543-0.522-0.556-1.384-0.032-1.925c0.523-0.543,1.385-0.555,1.928-0.031
				c19.873,19.221,34.339,48.969,42.977,70.54c9.336,23.328,14.064,42.396,14.11,42.588c0.18,0.729-0.268,1.467-0.998,1.646
				C115.171,570.707,115.064,570.719,114.956,570.719z"/>
		</g>
		<g>
			<g>
				<path fill="#FCE649" d="M140.67,565.213c-0.716,0-1.315-0.563-1.358-1.285c-0.952-17.09,6.324-45.18,21.621-83.489
					c11.361-28.449,23.153-52.229,23.271-52.464c0.335-0.675,1.149-0.952,1.827-0.614c0.673,0.335,0.946,1.152,0.613,1.825
					c-0.47,0.942-46.831,94.689-44.609,134.59c0.04,0.752-0.536,1.395-1.286,1.436C140.723,565.213,140.697,565.213,140.67,565.213z
					"/>
			</g>
		</g>
		<ellipse fill="#D2EAF9" cx="422.038" cy="558.676" rx="406.245" ry="16.342"/>
		<g>
			<g>
				<g>
					<path fill="#A8D3F1" d="M410.845,329.264l-1.166-0.271l5.634-24.182c0.362-1.546,1.723-2.628,3.31-2.628h7.809v1.198h-7.809
						c-1.027,0-1.91,0.7-2.145,1.703L410.845,329.264z"/>
				</g>
				<g>
					<path fill="#FFFFFF" d="M411.871,329.341l-1.122-0.423l11.835-31.418c0.53-1.406,1.897-2.353,3.401-2.353h8.826v1.198h-8.826
						c-1.009,0-1.926,0.633-2.28,1.579L411.871,329.341z"/>
				</g>
				<path fill="#A8D3F1" d="M429.32,296.336c-1.596,0-2.89,2.885-2.89,6.447c0,3.56,1.294,6.445,2.89,6.445V296.336z"/>
				<ellipse fill="#FFFFFF" cx="439.377" cy="296.096" rx="4.566" ry="10.181"/>
			</g>
			<g>
				<g>
					<path fill="#00081A" d="M359.877,469.239c-23.507,0-42.561,19.057-42.561,42.563c0,23.505,19.054,42.562,42.561,42.562
						c23.506,0,42.56-19.057,42.56-42.562C402.438,488.296,383.384,469.239,359.877,469.239z M359.877,537.945
						c-14.439,0-26.145-11.707-26.145-26.144c0-14.438,11.705-26.147,26.145-26.147c14.44,0,26.144,11.709,26.144,26.147
						C386.021,526.238,374.318,537.945,359.877,537.945z"/>
					<circle fill="#FFFFFF" cx="359.877" cy="511.802" r="7.811"/>
				</g>
				<g>
					<circle fill="#FFFFFF" cx="589.945" cy="511.802" r="7.813"/>
					<path fill="#00081A" d="M589.945,469.239c-23.505,0-42.562,19.057-42.562,42.563c0,23.505,19.057,42.562,42.562,42.562
						c23.506,0,42.56-19.057,42.56-42.562C632.505,488.296,613.451,469.239,589.945,469.239z M589.945,537.945
						c-14.439,0-26.146-11.707-26.146-26.144c0-14.438,11.707-26.147,26.146-26.147c14.438,0,26.146,11.709,26.146,26.147
						C616.091,526.238,604.383,537.945,589.945,537.945z"/>
				</g>
			</g>
			<path fill="#FFFFFF" d="M390.151,343.101c0,6.23,5.051,11.279,11.277,11.279v-22.555
				C395.202,331.825,390.151,336.874,390.151,343.101z"/>
			<path fill="#269526" d="M436.435,343.942c0,0-0.126-3.686-4.915-3.936c-4.791-0.248-9.581-3.241-10.329-6.387
				c-0.183-0.765-0.277-1.494-0.314-2.159c-0.111-1.996-1.82-3.528-3.819-3.528h-11.641c-2.119,0-3.837,1.717-3.837,3.833v22.569
				c0,2.12,1.718,3.835,3.837,3.835h8.888c0,0,5.238,3.594-1.047,12.275c-6.287,8.684-34.281,45.508-41.766,58.383
				c-7.483,12.872-8.383,26.945-8.383,26.945l5.988,24.849l38.321,21.558l11.679,10.932c1.538,1.438,3.566,2.24,5.673,2.24h127.255
				v-19.46h99.997c0,0-6.284-38.921-48.201-63.771h-93.71c0,0,15.969,17.365,12.626,41.615
				c-3.344,24.251-27.895,31.737-38.075,31.737c-10.177,0-35.028,0-47.901,0c-12.875,0-28.743-25.449-30.238-51.794
				c-1.5-26.35,7.586-49.202,18.563-64.421c6.95-9.64,12.274-19.111,12.871-26.596C438.556,355.177,436.435,343.942,436.435,343.942
				z"/>
			<path fill="#00081A" d="M658.21,486.312h-24.926c-2.647,0-4.791,2.144-4.791,4.789l0,0c0,2.647,2.144,4.791,4.791,4.791h24.926
				c2.646,0,4.79-2.144,4.79-4.791l0,0C663,488.455,660.855,486.312,658.21,486.312z"/>
			<path fill="#269526" d="M359.877,453.976c-29.159,0-52.793,23.637-52.793,52.795h105.586
				C412.671,477.612,389.034,453.976,359.877,453.976z"/>
			<path fill="#269526" d="M646.633,507.868H539.751c0,0-14.041-18.801-4.791-40.121c12.275-28.293,48.572-23.355,69.23-11.38
				S640.046,490.204,646.633,507.868z"/>
			<path fill="#00081A" d="M508.349,434.606l-2.602,3.684c-0.518,0.731-1.36,1.164-2.256,1.164l0,0
				c-1.525,0-2.762-1.234-2.762-2.761v-20.532c0-0.609,0.495-1.104,1.106-1.104h58.374c9.859,0,18.636-3.248,22.877-6.734
				c1.341-1.102,3.361-0.719,4.221,0.788c2.426,4.246,5.186,12.574-1.808,22.536c-0.209,0.295-0.558,0.474-0.921,0.474h-71.422
				C511.246,432.12,509.455,433.049,508.349,434.606z"/>
			<g>
				<g>
					<path fill="#248424" d="M621.185,492.299h-67.961c-0.993,0-1.797,0.802-1.797,1.796l0,0c0,0.993,0.804,1.797,1.797,1.797
						h67.961c0.993,0,1.796-0.804,1.796-1.797l0,0C622.98,493.101,622.178,492.299,621.185,492.299z"/>
					<path fill="#248424" d="M602.421,482.271h-49.197c-0.993,0-1.797,0.805-1.797,1.798l0,0c0,0.991,0.804,1.796,1.797,1.796
						h49.197c0.993,0,1.798-0.805,1.798-1.796l0,0C604.219,483.076,603.414,482.271,602.421,482.271z"/>
					<path fill="#248424" d="M585.408,472.247h-32.185c-0.993,0-1.797,0.801-1.797,1.796l0,0c0,0.991,0.804,1.796,1.797,1.796
						h32.185c0.991,0,1.797-0.805,1.797-1.796l0,0C587.205,473.048,586.399,472.247,585.408,472.247z"/>
				</g>
			</g>
			<g>
				<linearGradient id="SVGID_1_" gradientUnits="userSpaceOnUse" x1="593.3721" y1="407.9219" x2="662.0123" y2="407.9219">
					<stop  offset="0" style="stop-color:#E09E4F"/>
					<stop  offset="1" style="stop-color:#CD8B3A"/>
				</linearGradient>
				<rect x="593.142" y="386.015" fill="url(#SVGID_1_)" width="69.858" height="43.814"/>
				<linearGradient id="SVGID_2_" gradientUnits="userSpaceOnUse" x1="604.1182" y1="372.1348" x2="652.0205" y2="372.1348">
					<stop  offset="0" style="stop-color:#F4B073"/>
					<stop  offset="1" style="stop-color:#E2995C"/>
				</linearGradient>
				<rect x="604.118" y="358.255" fill="url(#SVGID_2_)" width="47.902" height="27.76"/>
				<g>
					<g>
						<path d="M614.9,431.526c-0.03,0-0.06-0.004-0.09-0.008c-0.328-0.048-0.554-0.353-0.504-0.681l10.778-72.672
							c0.047-0.326,0.359-0.549,0.678-0.505c0.328,0.049,0.554,0.352,0.505,0.683l-10.779,72.669
							C615.446,431.312,615.189,431.526,614.9,431.526z"/>
					</g>
					<g>
						<path d="M642.763,431.526c-0.292,0-0.547-0.215-0.591-0.514l-10.778-72.669c-0.05-0.331,0.177-0.634,0.504-0.683
							c0.318-0.046,0.632,0.179,0.68,0.505l10.779,72.672c0.047,0.328-0.18,0.633-0.506,0.681
							C642.822,431.522,642.793,431.526,642.763,431.526z"/>
					</g>
				</g>
			</g>
			<path fill-rule="evenodd" clip-rule="evenodd" fill="#FFFFFF" d="M405.013,410.926c0,0-8.058,11.713-10.81,26.4l-7.633,0.446
				c0,0,4.863-14.005,11.539-23.656L405.013,410.926z"/>
			<g>
				<path d="M671.363,432.124H584.46c-0.662,0-1.196-0.535-1.196-1.197c0-0.661,0.534-1.198,1.196-1.198h86.903
					c0.662,0,1.197,0.537,1.197,1.198C672.561,431.589,672.025,432.124,671.363,432.124z"/>
			</g>
			<path fill="#FB8F08" d="M437.993,363.447c-0.053,0.7-0.422,1.676-0.542,2.403c-1.737,0.229-2.646,0.326-3.387,0.38
				c-3.367,0.228-10.33-8.755-10.33-11.447c0-2.103,7.408-8.866,12.431-11.964C436.568,343.859,438.652,355.151,437.993,363.447z"/>
			<path fill="#00081A" d="M448.901,359.213c-0.413-0.618-0.964-1.121-1.604-1.487v-0.023c-0.571-0.297-6.27-3.546-6.27-3.546v0.023
				c-0.661-0.32-1.396-0.504-2.175-0.504c-2.813,0-5.077,2.288-5.077,5.101c0,0.916,0.229,1.764,0.662,2.493
				c0.367,0.644,0.87,1.214,1.488,1.648l0.022,0.023c0.229,0.159,0.459,0.273,0.708,0.413l1.923,1.074l3.272,1.853
				c0,0,0.021,0.023,0.045,0.023l0.595,0.343c0.688,0.32,1.418,0.505,2.198,0.505c2.585,0,4.711-1.923,5.057-4.394
				c0.021-0.229,0.044-0.458,0.044-0.687C449.791,361.019,449.472,360.011,448.901,359.213z"/>
			<g>
				<path fill="#00081A" d="M466.025,485.264H455.02c0,0-3.99,5.389-9.379,6.087c-3.029,0.394-8.646,0.344-12.981,0.227
					c-3.279-0.089-5.98,2.543-5.98,5.823l0,0c0,3.218,2.609,5.826,5.828,5.826h33.519c1.434,0,2.599-1.163,2.599-2.599
					L466.025,485.264z"/>
				<path fill="#00081A" d="M466.922,487.208H455.92c0,0-3.991,5.39-9.379,6.09c-3.031,0.394-8.649,0.342-12.983,0.224
					c-3.278-0.088-5.98,2.546-5.98,5.824l0,0c0,3.22,2.608,5.825,5.825,5.825h33.52c1.435,0,2.599-1.162,2.599-2.598
					L466.922,487.208z"/>
				<path fill="#FCB3BB" d="M456.952,486.312c0.435,2.317,2.441,4.04,4.844,4.04c2.408,0,4.414-1.73,4.845-4.04H456.952z"/>
			</g>
			<path fill="#37255C" d="M550.454,389.258c0,0-69.478,0-85.939,0c-22.018,0-22.018,22.942-22.018,32.613
				s7.819,63.994,7.819,63.994h16.668l5.144-63.994c0,0,50.207,0,63.375,0C548.673,421.871,556.833,407.058,550.454,389.258z"/>
			<path fill="#35383D" d="M552.023,392.6c0,0-68.857,0-84.827,0c-21.355,0-21.355,22.256-21.355,31.638s7.585,62.074,7.585,62.074
				h16.167l4.988-62.074c0,0,48.703,0,61.476,0C548.831,424.237,558.212,409.866,552.023,392.6z"/>
			<path fill="#442F6E" d="M524.902,277.887c0,0,5.84-6.281,9.22-16.265c0,0-16.791-23.429-45.019-10.75L524.902,277.887z"/>
			
				<linearGradient id="SVGID_3_" gradientUnits="userSpaceOnUse" x1="135.29" y1="299.4365" x2="101.9777" y2="326.5989" gradientTransform="matrix(-0.9916 0.1296 0.1296 0.9916 584.499 -52.4844)">
				<stop  offset="0" style="stop-color:#FDD7DB"/>
				<stop  offset="1" style="stop-color:#FBADAF"/>
			</linearGradient>
			<path fill="url(#SVGID_3_)" d="M489.042,250.88c0,0-1.988,14.763,3.43,26.238c5.416,11.477,6.754,11.736,16.511,9.807
				l1.648,12.619l18.505-6.552c0,0-7.072-19.753-4.276-23.299c2.358-2.989,3.192-8.233-0.242-10.048
				c-5.437-2.878-9.401,3.463-9.638,6.103l-2.667-9.931C512.313,255.817,493.189,249.323,489.042,250.88z"/>
			<g>
				<g>
					<path fill="#ED1C24" d="M494.664,252.384c-0.07,0-0.139-0.006-0.211-0.02l-30.674-6.11c-0.553-0.109-0.913-0.647-0.804-1.2
						c0.11-0.554,0.648-0.911,1.2-0.803l30.676,6.109c0.554,0.112,0.911,0.648,0.802,1.201
						C495.559,252.045,495.137,252.382,494.664,252.384z"/>
				</g>
			</g>
			<path fill="#ED1C24" d="M489.154,251.387l45.167,10.16c0,0,4.721-21.702-15.102-27.312
				C499.396,228.624,489.69,241.307,489.154,251.387z"/>
			<path fill="#FA8B98" d="M529.666,339.33c0,0-0.504,1.373-1.35,3.454c-0.251,0.641-0.55,1.373-0.869,2.149
				c-0.139,0.275-0.252,0.574-0.366,0.848c-0.137,0.275-0.252,0.572-0.366,0.846c-2.402,5.491-5.858,12.265-8.626,13.659
				c-1.557,0.781-9.219,0.87-18.785,0.665c-19.561-0.458-47.064-2.266-47.064-2.266s-1.35,0.206-3.338,0.527
				c-0.413-0.618-0.964-1.121-1.604-1.487v-0.023c-0.571-0.297-6.27-3.546-6.27-3.546v0.023c-0.661-0.32-1.396-0.504-2.175-0.504
				c-2.813,0-5.077,2.288-5.077,5.101c0,0.916,0.229,1.764,0.662,2.493c-0.045,0.026-0.114,0.026-0.158,0.026
				c-2.381,0.136-6.752-4.808-8.466-8.078c1.897-2.632,7.045-7.047,10.613-9.268c0,0-0.046-1.577-1.416-2.746
				c1.874-1.304,3.546-2.22,4.438-2.287c2.998-0.206,15.969,8.604,15.969,8.604l42.832-2.313l9.473-0.504l0.299-0.938l0.296-0.846
				l0.275-0.87l1.921-5.721L529.666,339.33z"/>
			<path fill="#6A6D76" d="M502.859,390.206c0,0-3.824-57.935,1.573-78.142c5.262-19.686,22.442-27.545,32.023-14.97
				c9.58,12.572,5.783,32.855,6.587,49.398c1.498,30.838,8.684,40.418,8.98,46.106h-49.164V390.206z"/>
			<polygon fill-rule="evenodd" clip-rule="evenodd" fill="#606268" points="539.25,317.084 532.264,348.114 504.312,343.867 
				511.905,313.091 			"/>
			<linearGradient id="SVGID_4_" gradientUnits="userSpaceOnUse" x1="425.0801" y1="352.4756" x2="529.666" y2="352.4756">
				<stop  offset="0" style="stop-color:#FDD7DB"/>
				<stop  offset="1" style="stop-color:#FBADAF"/>
			</linearGradient>
			<path fill="url(#SVGID_4_)" d="M529.666,342.988c0,0-0.298,0.824-0.823,2.154c-0.093,0.272-0.229,0.546-0.344,0.869
				c-0.092,0.273-0.229,0.549-0.343,0.844c-2.267,5.583-6.658,15.397-10.067,17.093c-1.557,0.777-9.016,0.892-18.441,0.685h-0.022
				c-19.563-0.456-47.386-2.264-47.386-2.264s-0.984,0.161-2.492,0.39c0.021-0.229,0.044-0.458,0.044-0.687
				c0-1.054-0.319-2.062-0.89-2.859c-0.413-0.618-0.964-1.121-1.604-1.487v-0.023c-0.571-0.297-6.27-3.546-6.27-3.546v0.023
				c-0.661-0.32-1.396-0.504-2.175-0.504c-2.813,0-5.077,2.288-5.077,5.101c0,0.916,0.229,1.764,0.662,2.493
				c0.367,0.644,0.87,1.214,1.488,1.648l0.022,0.023c0.229,0.159,0.459,0.273,0.708,0.413l1.923,1.074
				c-0.297,0.047-0.594,0.068-0.869,0.114c-1.532,0.206-2.792,0.367-3.431,0.413c-2.999,0.206-9.2-7.781-9.2-10.185
				c0-0.363,0.276-0.891,0.734-1.554c1.897-2.632,7.045-7.047,10.613-9.268c1.283-0.801,2.358-1.304,3.022-1.352
				c2.998-0.204,15.969,8.582,15.969,8.582l42.992-2.288h0.023l9.289-0.501l1.465-4.441l0.298-0.846l0.274-0.869l0.754-2.244
				l17.802,2.793L529.666,342.988z"/>
			<polygon fill="#6A6D76" points="511.905,312.064 506.218,342.601 531.067,346.395 539.25,316.055 			"/>
			<polygon fill="#FA8B98" points="504.459,304.438 504.459,304.459 504.433,304.447 			"/>
		</g>
	</g>
	<g>
		<path fill="#FFE500" d="M806.624,533.318c0,0,4.518,20.027,4.713,21.326c7.413-0.16,15.478-0.463,15.854,2.979
			c-8.207,0-11.277-0.02-11.277-0.02s12.611,7.607,10.297,8.814c-2.316,1.205-13.831-5.846-17.564-7.455
			c-3.928,0-9.444,0.008-9.444,0.008s0.287-1.92,7.255-3.18c-0.847-3.27-5.188-21.842-5.188-21.842L806.624,533.318z"/>
		<path fill="#FFE500" d="M786.299,536.152c0,0,4.084,18.984,4.278,20.285c7.413-0.162,15.478-0.465,15.854,2.979
			c-8.207,0-11.277-0.02-11.277-0.02s12.61,7.607,10.296,8.813c-2.315,1.205-13.83-5.844-17.563-7.453
			c-3.929,0-9.445,0.008-9.445,0.008s0.286-1.922,7.255-3.18c-0.846-3.27-4.753-20.801-4.753-20.801L786.299,536.152z"/>
		<path fill="#28A528" d="M811.581,522.998c0.561,13.672-11.363,19.9-16.564,3.316C798.379,526.881,811.581,522.998,811.581,522.998
			z"/>
		<path fill="#28A528" d="M792.68,526.975c-1.435,7.025-5.6,11.494-9.515,11.08c-3.553-0.377-6.921-4.885-7.43-13.146
			C778.86,526.281,792.68,526.975,792.68,526.975z"/>
		<path fill="#ED1C24" d="M851.278,424.136c3.893,1.016,8.955,0.127,5.188-1.86c5.902-2.159,3.851-6.645-0.168-4.91
			c5.609-7.955,3.349-10.451-1.632-5.373c1.507-9.352-0.962-9.352-5.357-1.523c-0.754-12.61-6.445-16.461-8.287-3.597
			c-6.069-10.028-11.05-9.056-6.236,1.015c-7.158-7.108-12.766-6.262-6.655,2.751c6.111,9.014,9.417,10.494,9.417,10.494
			S845.207,418.932,851.278,424.136z"/>
		<path fill="#228022" d="M852.229,475.228c1.347,9.797-8.344,37.688-36.203,47.757c-27.857,10.068-59.391,6.836-66.678-29.263
			c-1.076-4.219,0.869-10.194,0.869-10.194s27.858-8.436,48.854-17.961C805.26,469.921,844.154,464.206,852.229,475.228z"/>
		<path fill="#228022" d="M750.217,483.527c19.024-1.266,27.54-16.237,27.787-30.587c0.246-14.349-7.405-33.314-26.411-42.297
			c-19.006-8.983-35.173-1.249-37.764,3.742c20.61-0.748,39.244,8.359,47.514,23.582
			C769.612,453.189,768.957,478.054,750.217,483.527z"/>
		<path fill="#FFE500" d="M754.072,482.019c16.244-5.531,20.231-20.525,17.175-33.052c-3.055-12.526-14.026-27.226-32.591-30.604
			c-18.563-3.379-30.849,7.109-31.964,12.05c17.739-5.451,36.01-1.877,46.664,9.424C764.011,451.139,769.11,472.896,754.072,482.019
			z"/>
		<path fill="#228022" d="M755.195,481.296c13.375-9.289,13.166-23.987,7.172-34.595c-5.99-10.606-19.747-21.118-37.517-19.334
			c-17.77,1.783-26.271,14.552-26.021,19.343c14.758-9.609,32.311-11.14,44.908-3.638
			C756.335,450.573,766.553,469.053,755.195,481.296z"/>
		<path fill="#FFE500" d="M754.285,482.316c11.154-8.592,4.557-30.482-15.763-36.716c-21.804-6.689-35.788,3.496-39.848,15.201
			c12.535-10.543,24.031-11.377,35.805-8.034C749.578,457.056,758.783,469.812,754.285,482.316z"/>
		<path fill="#228022" d="M754.381,482.213c7.15-12.193-7.088-29.983-28.235-28.056c-22.694,2.069-31.878,16.814-31.297,29.206
			c7.706-14.528,18.054-19.66,30.207-21.028C740.644,460.583,753.909,468.916,754.381,482.213z"/>
		<path fill="#FFE500" d="M753.665,483.034c2.14-12.031-14.669-22.063-31.179-14.058c-17.716,8.591-20.736,23.303-16.571,33.136
			c1.891-14.086,8.719-21.387,18.132-26.196C736.116,469.747,749.319,472.436,753.665,483.034z"/>
		<path fill="#228022" d="M751.39,485.784c-1.193-10.816-18.057-15.062-30.135-3.994c-12.961,11.878-11.844,25.208-5.821,32.528
			c-1.922-12.505,2.072-20.487,8.896-27.007C733.079,478.95,745.021,477.855,751.39,485.784z"/>
		<path fill="#FFE500" d="M751.242,486.878c-3.209-7.268-15.89-6.437-21.87,3.988c-6.419,11.186-2.711,20.221,3.097,23.97
			c-4.089-8.281-3.063-14.739,0.259-20.814C736.984,486.23,745.063,482.785,751.242,486.878z"/>
		<path fill="#279C27" d="M809.961,464.563c5.321,2.55,5.284,14.113,1.219,24.938s-15.044,18.635-18.431,17.128
			c-3.389-1.508,1.084-7.125,1.084-7.125s-6.777,6.576-11.791,4.795c-5.015-1.781,1.355-5.344,1.355-5.344
			s-8.402,4.658-12.739,2.192c-4.338-2.467,3.523-5.206,3.523-5.206s-8.268,2.877-10.978,0.411
			c-2.711-2.468,1.896-3.016,1.896-3.016s-6.912,3.289-9.622-1.096c-2.711-4.385,6.234-4.933,6.234-4.933s-10.702,0.696-8.809-4.384
			c1.796-4.824,37.242-15.832,46.063-18.242C804.188,463.255,807.385,463.33,809.961,464.563z"/>
		<g>
			<g>
				<path fill="#228022" d="M807.811,479.62c-1.574,5.982-6.894,20.164-10.253,18.56c-2.295-1.096,0.577-4.247,2.465-6.99
					c3.057-4.445,4.652-7.461,6.703-11.956C807.48,477.578,808.271,477.868,807.811,479.62z"/>
				<path fill="#228022" d="M798.987,480.628c-2.953,5.423-11.497,17.89-14.375,15.515c-1.966-1.622,1.572-3.98,4.058-6.184
					c4.027-3.569,6.295-6.107,9.356-9.97C799.153,478.566,799.852,479.04,798.987,480.628z"/>
				<path fill="#228022" d="M791.046,478.766c-3.736,4.907-14.054,15.916-16.542,13.126c-1.698-1.906,2.152-3.693,4.94-5.488
					c4.517-2.91,7.14-5.068,10.746-8.416C791.52,476.755,792.139,477.329,791.046,478.766z"/>
				<path fill="#228022" d="M783.566,475.83c-4.736,3.928-17.248,12.293-19.048,9.007c-1.229-2.244,2.922-3.105,6.04-4.219
					c5.05-1.801,8.088-3.305,12.349-5.741C784.479,473.979,784.952,474.681,783.566,475.83z"/>
			</g>
		</g>
		<path fill="#6A6D76" d="M852.771,438.737c0.264-8.029,1.242-13.804-2.899-17.358c-5.668-4.864-18.077-2.567-25.115,8.25
			c-7.041,10.816-12.391,27.611-18.584,31.028c-6.195,3.414-9.434,4.27-9.434,4.27s0.563,7.401,7.743,4.839
			c-2.111,5.836,3.942,6.547,6.898,3.274c1.689,13.236,8.166,7.827,11.404,2.989c2.252,11.386,10.699,7.686,11.685,2.561
			c5.913,12.953,11.686,5.693,11.967-0.712c3.379,9.395,12.822,13.908,8.511-5.164C852.362,461.284,852.426,449.265,852.771,438.737
			z"/>
		<ellipse fill="#43474D" cx="846.312" cy="426.242" rx="2.24" ry="2.267"/>
		<path fill="#FFD600" d="M852.03,426.125c3.222,0.043,7.869,1.777,8.831,5.417c-2.846,0-8.455,0-8.455,0L852.03,426.125z"/>
		<path fill="#ED1C24" d="M853.012,433.124c-0.083,1.946,1.465,6.135,4.94,10.536c3.474,4.401,2.176,7.617-3.015,7.828
			C849.748,451.701,851.422,440.148,853.012,433.124z"/>
		<g>
			<g>
				<path fill="#FFE500" d="M838.252,461.598c-0.675,3.838-0.845,7.018-0.376,7.102c0.467,0.083,1.392-2.96,2.068-6.798
					c0.675-3.838,0.843-7.017,0.376-7.101C839.853,454.717,838.928,457.76,838.252,461.598z"/>
				<path fill="#FFE500" d="M827.646,460.4c-1.169,3.716-1.749,6.844-1.298,6.989c0.452,0.146,1.767-2.748,2.936-6.462
					c1.169-3.716,1.749-6.844,1.298-6.99C830.128,453.792,828.814,456.687,827.646,460.4z"/>
				
					<ellipse transform="matrix(-0.9995 0.0307 -0.0307 -0.9995 1704.3984 903.7513)" fill="#FFE500" cx="845.261" cy="464.961" rx="0.859" ry="7.059"/>
				<path fill="#FFE500" d="M835.46,456.712c-0.675,3.837-0.844,7.017-0.377,7.102c0.467,0.082,1.394-2.961,2.068-6.799
					c0.676-3.837,0.844-7.017,0.376-7.101C837.061,449.831,836.134,452.874,835.46,456.712z"/>
				<path fill="#FFE500" d="M821.443,455.115c-1.497,3.592-2.356,6.654-1.919,6.841c0.437,0.186,2.006-2.574,3.502-6.167
					c1.497-3.592,2.356-6.655,1.92-6.842C824.509,448.761,822.94,451.522,821.443,455.115z"/>
				<path fill="#FFE500" d="M821.391,447.62c-1.985,3.342-3.266,6.249-2.859,6.497c0.406,0.247,2.346-2.262,4.333-5.603
					c1.986-3.341,3.267-6.25,2.86-6.497C825.316,441.771,823.377,444.279,821.391,447.62z"/>
			</g>
		</g>
	</g>
	<g>
		<polygon fill="#3F6C71" points="275.812,521.006 277.915,544.818 287.284,545.582 286.231,519.781 		"/>
		<g>
			<path fill="#905D27" d="M291.03,534.682c0,0,4.792,7.195,12.71,10.234c7.918,3.035,18.414,8.672,17.434,13.373
				c0,0-15.959,2.748-35.025-5.242l-0.163,2.008l-12.817-1.596l1.354-16.625l10.625,1.6l-0.657-1.709L291.03,534.682z"/>
			<path fill="#6A4019" d="M297.25,555.055c14.443,4.959,22.87,2.246,23.924,1.99c0.078,0.422,0.085,0.838,0,1.244
				c0,0-15.959,2.748-35.025-5.242l-0.163,2.008l-12.817-1.596l0.271-3.316C278.007,550.789,285.903,551.158,297.25,555.055z"/>
			<g>
				<path fill="#6A4019" d="M288.505,544.232c-0.125,0-0.25-0.041-0.354-0.127c-0.239-0.195-0.274-0.545-0.08-0.785
					c3.175-3.891,6.458-4.783,6.596-4.82c0.302-0.076,0.603,0.1,0.682,0.396c0.078,0.299-0.099,0.604-0.397,0.686
					c-0.03,0.006-3.085,0.855-6.014,4.445C288.827,544.162,288.667,544.232,288.505,544.232z"/>
			</g>
			<g>
				<path fill="#6A4019" d="M291.343,545.758c-0.125,0-0.249-0.041-0.354-0.123c-0.239-0.195-0.274-0.549-0.079-0.787
					c3.176-3.891,6.458-4.785,6.597-4.822c0.301-0.076,0.602,0.1,0.681,0.396c0.079,0.299-0.099,0.604-0.396,0.686
					c-0.03,0.006-3.085,0.859-6.016,4.447C291.666,545.688,291.505,545.758,291.343,545.758z"/>
			</g>
			<g>
				<path fill="#6A4019" d="M294.185,547.268c-0.125,0-0.25-0.041-0.354-0.123c-0.239-0.195-0.274-0.549-0.08-0.787
					c3.175-3.891,6.458-4.785,6.596-4.822c0.304-0.076,0.603,0.1,0.682,0.398c0.078,0.297-0.099,0.604-0.396,0.684
					c-0.031,0.008-3.086,0.859-6.015,4.447C294.506,547.197,294.347,547.268,294.185,547.268z"/>
			</g>
		</g>
		<path fill="#F7AC92" d="M278.664,134.706c0,0,14.146,5.813,9.383,16.986l8.75,10.251l-9.176,4.167l-4.741-6.006
			c0,0-2.076,5.631-8.428,0.583C268.098,155.639,278.664,134.706,278.664,134.706z"/>
		<g>
			<path fill="#1F3535" d="M250.007,117.504l33.26,26.997c0,0,3.318,1.642,1.134,5.735c-2.186,4.093-8.906,15.97-8.906,15.97
				s-1.775,3.098-4.763,1.867c-2.988-1.231-30.336-24.802-30.336-24.802L250.007,117.504z"/>
			<path fill="#122323" d="M283.267,144.5l-33.26-26.997l-1.098,2.946l30.05,24.546c0,0,3.317,1.643,1.133,5.735
				c-2.185,4.094-8.906,15.97-8.906,15.97s-0.33,0.571-0.939,1.126c0.19,0.107,0.354,0.19,0.485,0.245
				c2.987,1.231,4.763-1.867,4.763-1.867s6.721-11.877,8.906-15.97C286.585,146.143,283.267,144.5,283.267,144.5z"/>
			<path fill="#687D7D" d="M248.015,122.347c0.144,0.114,28.072,22.96,28.072,22.96l-9.06,17.186l-25.72-21.61L248.015,122.347z"/>
		</g>
		
			<ellipse transform="matrix(-0.9246 -0.3809 0.3809 -0.9246 468.0409 404.271)" opacity="0.2" fill="#687D7D" cx="274.026" cy="155.82" rx="2.097" ry="2.624"/>
		<path fill="#FFBFA0" d="M267.242,136.014c0,0-1.773-2.473,4.894-5.994c0,0,1.95-0.583,2.65,1.269
			C275.487,133.141,268.891,139.025,267.242,136.014z"/>
		<path fill="#FFBFA0" d="M271.907,140.412c0,0-3.825-2.657,3.713-9.017c0,0,2.445-1.291,4.422,0.874
			C282.02,134.437,275.844,143.79,271.907,140.412z"/>
		<path fill="#FFBFA0" d="M275.864,143.57c0,0-3.18-2.235,3.178-7.719c0,0,2.057-1.122,3.693,0.709
			C284.373,138.392,279.131,146.419,275.864,143.57z"/>
		<path fill="#FFBFA0" d="M196.455,158.654c1.932-6.6-3.119-14.676-6.331-20.073c-2.682-1.911-6.066-3.033-9.557-0.836
			c-7.813,4.917,3.089,25.745,15.559,19.646C196.237,157.821,196.346,158.238,196.455,158.654z"/>
		<path fill="#E79F89" d="M182.669,141.076c4.409-2.931,8.799,3.66,9.454,4.702c-2.808,2.614-2.501,7.159,0.095,9.031
			C184.747,157.874,177.992,144.187,182.669,141.076z"/>
		<polygon fill="#3F6C71" points="201.458,521.006 199.356,544.818 189.987,545.582 191.04,519.781 		"/>
		<path fill="#30353B" d="M266.72,320.609l-1.773-16.149l-1.06,0.102c-4.557-9.275-16.282-8.5-27.803-4.844
			c-11.437-3.496-22.988-4.099-27.443,5.118l-1.061-0.093l-1.633,15.801c-5.183,22.349-12.172,115.076-19.995,203.183
			c0,0,10.002,8.16,19.062,2.754c13.914-81.194,15.898-115.271,25.845-162.345c3.308,0.517,10.48,0.161,14.393-0.476
			c13.859,43.984,17.484,79.89,28.771,163.203c9.095,5.35,16.798-1.629,16.798-1.629
			C286.692,436.068,272.063,343.031,266.72,320.609z"/>
		<polygon fill="#CFAE80" points="240.712,323.409 241.243,363.236 235.53,363.737 233.176,324.926 		"/>
		<polygon fill="#E79F89" points="245.202,169.061 243.477,214.531 207.757,197.298 199.653,161.315 		"/>
		<path fill="#FFBFA0" d="M190.649,119.464c0.841-8.628-7.477-9.97,22.112-18.047c10.258-2.8,24.631-0.311,24.631-0.311
			s19.35,56.822,17.145,64.885c-1.824,6.671-8.985,17.192-19.275,18.928c-10.291,1.734-30.129,0.61-33.02-10.356
			C201.591,172.099,190.649,119.464,190.649,119.464z"/>
		<path fill="#B55151" d="M243.477,157.619l-27.271,3.948c0,0,5.268,6.599,16.126,5.286
			C243.19,165.541,243.477,157.619,243.477,157.619z"/>
		<path fill="#4F2121" d="M218.098,163.326c1.804-0.943,3.798-1.523,5.937-1.605c5.031-0.192,9.876,1.032,13.657,3.647
			c5.597-2.705,5.785-7.75,5.785-7.75l-27.271,3.948C216.207,161.567,216.832,162.351,218.098,163.326z"/>
		<path fill="#007330" d="M281.163,210.713c0,0-12.623,69.65-15.381,101.347c0,0-12.945,5.645-37.018,5.545
			c-17.005-0.067-22.036-3.588-22.036-3.588l-41.243-108.484c0,0,24.871-4.94,50.746-5.881l12.425,10.895
			c0,0,2.927-8.93,9.297-10.925c9.779,0.321,31.771,1.114,43.21,2.599V210.713z"/>
		<g>
			<g>
				<polygon fill="#007330" points="157.255,280.655 201.957,229.509 165.485,205.534 135.403,270.026 				"/>
			</g>
		</g>
		<g>
			<g>
				<path fill="#007330" d="M281.163,202.222l30.352,3.269l5.385,4.232c4.369,4.559,8.595,1.728,13.038,6.211
					c-4.723,13.077-4.234,20.873-7.784,21.276c-18.042,2.063-65.766,11.167-65.766,11.167L281.163,202.222z"/>
			</g>
		</g>
		<g>
			<g>
				<path fill="#FF151F" d="M256.387,316.334c4.894-1.086,8.961-2.151,9.015-2.17c1.431-0.476,1.932,0.722,2.121,2.115
					c0.25,1.843,0.464,2.632-0.822,3.033c-0.235,0.072-4.25,1.249-9.119,2.448C257.18,319.952,256.78,318.146,256.387,316.334z"/>
				<path fill="#FF151F" d="M221.195,318.436c5.476,0.396,11.459,0.392,17.936,0.134c4.995-0.2,9.465-0.769,13.216-1.436
					c-0.083,1.894,0.217,3.766,0.589,5.631c-3.818,0.722-8.387,1.326-13.571,1.533c-2.109,0.086-4.173,0.127-6.188,0.127
					c-4.517,0-8.683-0.161-12.596-0.52C220.973,322.105,221.193,320.285,221.195,318.436z"/>
				<path fill="#FF151F" d="M205.162,318.247c0.25-1.39,0.401-2.623,1.848-2.188c3.239,0.968,6.778,1.632,10.596,2.061
					c-0.093,1.807-0.338,3.6-0.587,5.393c-3.968-0.523-7.665-1.296-11.126-2.435C204.884,320.747,204.909,319.652,205.162,318.247z"
					/>
			</g>
		</g>
		<path fill="#AEAEAE" d="M230.166,317.909v7.348l12.699-0.832v-6.816L230.166,317.909z M232.319,319.104l8.394-0.2v4.505
			l-8.394,0.551V319.104z"/>
		<g>
			<path fill="#905D27" d="M186.24,534.682c0,0-4.791,7.195-12.709,10.234c-7.919,3.035-18.414,8.672-17.434,13.373
				c0,0,15.959,2.748,35.025-5.242l0.164,2.008l12.816-1.596l-1.355-16.625l-10.625,1.6l0.657-1.709L186.24,534.682z"/>
			<path fill="#6A4019" d="M180.022,555.055c-14.444,4.959-22.871,2.246-23.925,1.99c-0.079,0.422-0.086,0.838,0,1.244
				c0,0,15.959,2.748,35.025-5.242l0.164,2.008l12.816-1.596l-0.271-3.316C199.263,550.789,191.368,551.158,180.022,555.055z"/>
			<g>
				<path fill="#6A4019" d="M188.766,544.232c-0.162,0-0.322-0.07-0.434-0.205c-2.947-3.611-5.982-4.439-6.013-4.445
					c-0.299-0.08-0.478-0.387-0.399-0.684c0.078-0.299,0.385-0.475,0.683-0.398c0.138,0.037,3.419,0.93,6.596,4.82
					c0.194,0.24,0.159,0.59-0.08,0.785C189.016,544.191,188.89,544.232,188.766,544.232z"/>
			</g>
			<g>
				<path fill="#6A4019" d="M185.927,545.758c-0.162,0-0.323-0.07-0.433-0.203c-2.949-3.611-5.985-4.441-6.015-4.447
					c-0.299-0.08-0.477-0.387-0.398-0.684c0.078-0.299,0.383-0.479,0.682-0.398c0.139,0.037,3.42,0.932,6.597,4.822
					c0.195,0.238,0.159,0.592-0.079,0.787C186.176,545.717,186.052,545.758,185.927,545.758z"/>
			</g>
			<g>
				<path fill="#6A4019" d="M183.086,547.268c-0.162,0-0.322-0.07-0.433-0.203c-2.949-3.611-5.983-4.439-6.014-4.447
					c-0.3-0.078-0.478-0.383-0.399-0.684c0.078-0.297,0.383-0.473,0.683-0.398c0.138,0.037,3.419,0.932,6.597,4.822
					c0.194,0.238,0.158,0.592-0.079,0.787C183.336,547.227,183.211,547.268,183.086,547.268z"/>
			</g>
		</g>
		<polygon fill="#94CEC7" points="229.935,209.723 225.128,199.623 218.346,203.108 		"/>
		<polygon fill="#94CEC7" points="229.165,200.433 227.858,210.548 234.039,203.199 		"/>
		<polygon fill="#80C177" points="249.036,199.184 238.792,211.137 229.165,200.433 243.111,192.403 		"/>
		<polygon fill="#80C177" points="199.653,198.313 217.193,210.949 225.128,199.623 205.522,191.361 		"/>
		<path fill="#30353B" d="M221.239,203.557c0,0,4.729,0.712,10.786,0l3.901,4.173l-3.924,5.327l24.535,76.555l-13.828,15.24
			l-18.965-10.369l0.807-80.601l-5.893-6.277L221.239,203.557z"/>
		<path fill="#007330" d="M135.403,270.026c0,0,11.728,29.56,56.662,44.031l6.065-15.095c0,0-20.464-12.368-35.881-32.904
			L135.403,270.026z"/>
		<g>
			<path fill="#111F3D" d="M222.208,67.785c-0.233,0.035-0.369,0.063-0.369,0.063C221.966,67.823,222.083,67.808,222.208,67.785z"/>
			<path fill="#111F3D" d="M260.042,166.457c-1.46-12.935-5.633-15.365-10.683-26.886c0,0,5.317,25.531-3.713,31.273
				c-9.029,5.743-10.186-2.1-10.186-2.1l-4.363,1.056c0,0,1.244,5.542-5.11,6.941c-6.355,1.4-19.005,3.235-25.825-23.87
				c-1.602-7.688-3.018-18.387-3.018-18.387s4.168-11.916-0.938-24.439c0,0,6.787-3.923,18.872-0.394
				c13.898,4.059,32.84,5.156,36.863-17.162c0,0-3.687,7.851-9.186,10.181c0,0,10.808-9.665,4.155-22.322
				c0,0,0.776,2.454-0.406,6.667c0.598-4.583-1.047-10.352-8.83-16.334c0,0,4.47,5.996,2.447,8.579c0,0,0.096-14.631-17.938-11.31
				c2.058-0.312,12.093-1.282,10.56,9.857c-1.365,9.921-43.652-12.588-47.675,18.21c0,0-15.653,3.974-7.123,18.942
				c9.067,15.911,12.226,23.188,16.913,35.546l0,0c0,0,3.292,19.39,4.38,28.61c1.089,9.221,15.275,16.375,28.583,16.636
				l-3.291-2.188c0,0,5.444,3.067,13.18,3.734c0,0,9.829-5.002,14.494-14.047l-0.785,4.656
				C251.421,187.908,261.502,179.39,260.042,166.457z"/>
		</g>
		
			<ellipse transform="matrix(-0.9993 0.0383 -0.0383 -0.9993 425.2191 260.4533)" fill="#B1E2DC" stroke="#7E4C30" stroke-width="1.9911" stroke-miterlimit="10" cx="210.112" cy="134.304" rx="12.167" ry="14.155"/>
		
			<ellipse transform="matrix(-0.9993 0.0383 -0.0383 -0.9993 489.5063 248.2716)" fill="#B1E2DC" stroke="#7E4C30" stroke-width="1.9911" stroke-miterlimit="10" cx="242.374" cy="128.828" rx="12.167" ry="14.155"/>
		<path fill="#E79F89" d="M225.128,128.828c0,0,10.467,8.537,13.397,18.768c-8.7,3.834-8.7,3.834-8.7,3.834L225.128,128.828z"/>
		<path fill="#111F3D" d="M245.936,149.603c-2.647-1.293-13.137,1.107-16.11,1.827c-4.144,0.125-12.617,0.584-14.571,2.262
			c-2.613,2.243-0.865,7.623-0.865,7.623c-0.226-3.364,12.446-2.115,16.266-3.804c0.307-0.135,0.561-0.292,0.792-0.46
			c0.174,0.052,0.351,0.102,0.551,0.134c4.121,0.67,16.067-3.736,16.698-0.424C248.696,156.761,249.031,151.115,245.936,149.603z"/>
		<path fill="none" stroke="#7E4C30" stroke-width="2.0016" stroke-miterlimit="10" d="M222.25,133.287c0,0,2.805-5.298,8.458-1.572
			"/>
		
			<line fill="none" stroke="#7E4C30" stroke-width="2.1378" stroke-miterlimit="10" x1="186.327" y1="137.443" x2="198.173" y2="136.898"/>
		<path fill="#FFBFA0" d="M181.661,138.934c3.361-0.129,7.062,2.253,9.995,3.382c-0.382-0.646-1.183-3.146-1.532-3.736
			c-2.682-1.911-6.066-3.033-9.557-0.836c-0.656,0.414-1.171,0.947-1.573,1.56C179.854,139.097,180.744,138.969,181.661,138.934z"/>
		<g>
			<path fill="#262929" d="M206.332,138.201c0,0-0.422-1.095-0.521-2.849c-0.047-0.875-0.032-1.919,0.308-3.063
				c0.205-0.559,0.426-1.195,0.991-1.716c0.239-0.283,0.619-0.465,0.969-0.646c0.19-0.053,0.385-0.101,0.581-0.142l0.146-0.03
				l0.037-0.007l0.018-0.004l0.009-0.001c-0.101,0,0.148-0.002,0.125-0.002l0.053,0.002l0.211,0.009
				c0.158,0.02,0.243-0.003,0.46,0.056c0.208,0.055,0.417,0.121,0.619,0.194c0.367,0.163,0.644,0.349,0.917,0.555
				c0.52,0.42,0.907,0.917,1.214,1.399c0.33,0.477,0.558,0.972,0.756,1.44c0.211,0.463,0.356,0.918,0.477,1.338
				c0.495,1.678,0.485,2.852,0.485,2.852s-0.141-0.25-0.388-0.689c-0.241-0.436-0.593-1.052-1.013-1.768
				c-0.213-0.356-0.45-0.736-0.704-1.123c-0.254-0.387-0.543-0.779-0.848-1.147c-0.293-0.388-0.663-0.694-1.003-0.974
				c-0.168-0.12-0.376-0.237-0.518-0.295c-0.065-0.015-0.123-0.038-0.182-0.071c-0.048-0.04-0.256-0.02-0.376-0.036l-0.211-0.017
				l-0.052-0.004c-0.028,0,0.217-0.002,0.112,0l-0.004,0.001l-0.007,0.002l-0.015,0.004l-0.06,0.015
				c-0.079,0.019-0.159,0.031-0.244,0.039c-0.133,0.094-0.296,0.116-0.417,0.269c-0.274,0.221-0.517,0.617-0.708,1.026
				c-0.37,0.852-0.58,1.792-0.747,2.598c-0.156,0.812-0.27,1.511-0.346,2.003C206.376,137.917,206.332,138.201,206.332,138.201z"/>
		</g>
		<g>
			<path fill="#262929" d="M238.591,132.725c0,0-0.421-1.096-0.521-2.849c-0.047-0.876-0.031-1.919,0.309-3.064
				c0.205-0.559,0.426-1.195,0.99-1.716c0.239-0.283,0.619-0.465,0.968-0.647c0.19-0.053,0.385-0.101,0.581-0.143l0.147-0.03
				l0.037-0.007l0.018-0.003l0.009-0.002c-0.102,0,0.149-0.002,0.125-0.002l0.053,0.002l0.211,0.009
				c0.158,0.02,0.243-0.003,0.46,0.056c0.208,0.055,0.417,0.121,0.619,0.194c0.368,0.163,0.644,0.349,0.917,0.555
				c0.52,0.42,0.906,0.917,1.214,1.399c0.331,0.477,0.558,0.972,0.757,1.44c0.21,0.463,0.355,0.918,0.477,1.338
				c0.495,1.678,0.486,2.852,0.486,2.852s-0.141-0.25-0.388-0.689c-0.242-0.436-0.593-1.052-1.013-1.768
				c-0.213-0.356-0.45-0.736-0.705-1.123c-0.254-0.387-0.543-0.779-0.848-1.147c-0.293-0.388-0.663-0.693-1.003-0.974
				c-0.168-0.12-0.376-0.237-0.519-0.295c-0.064-0.015-0.123-0.038-0.182-0.071c-0.048-0.04-0.256-0.02-0.376-0.036l-0.21-0.017
				l-0.053-0.004c-0.028,0,0.219-0.002,0.112,0l-0.003,0.001l-0.008,0.002l-0.015,0.004l-0.06,0.015
				c-0.08,0.019-0.16,0.031-0.244,0.039c-0.133,0.094-0.296,0.116-0.417,0.27c-0.274,0.222-0.518,0.618-0.708,1.027
				c-0.37,0.852-0.58,1.792-0.748,2.598c-0.156,0.812-0.27,1.511-0.346,2.003C238.636,132.441,238.591,132.725,238.591,132.725z"/>
		</g>
		<path fill="#FFBFA0" d="M219.923,309.549c0,0,4.844,0.914,2.777-1.771c-1.897-2.469-8.052-4.089-12.116-2.507
			c1.736-0.757,5.414-2.074,8.922-1.484c0,0,2.809-0.431-0.328-2.87c-2.819-2.192-7.962-1.258-13.987,2.972
			c-0.157-2.915-0.688-6.916-2.438-6.32c-2.129,0.726-1.331,5.294-0.889,7.229l-5.041-2.58l-4.215,10.489
			c0,0,6.86,6.25,12.921,5.103c6.061-1.146,7.274-6.943,10.747-4.733c3.474,2.21,8.973,2.462,2.832-2.346
			c0,0-3.961-2.047-5.524-1.36C213.583,309.37,216.136,307.174,219.923,309.549z M209.826,305.62
			c-0.087,0.048-0.183,0.087-0.268,0.137C209.558,305.757,209.656,305.704,209.826,305.62z"/>
		<path fill="#007330" d="M303.389,209.723l-18.782-43.613l12.189-11.788c0,0,47.778,74.136,37.256,79.463
			c-1.18,0.599-8.599,2.797-11.899,3.425C289.114,243.505,303.389,209.723,303.389,209.723z"/>
		<g>
			<defs>
				<path id="SVGID_5_" d="M221.239,203.557c0,0,4.729,0.712,10.786,0l3.901,4.173l-3.924,5.327l24.535,76.555l-13.828,15.24
					l-18.965-10.369l0.807-80.601l-5.893-6.277L221.239,203.557z"/>
			</defs>
			<clipPath id="SVGID_6_">
				<use xlink:href="#SVGID_5_"  overflow="visible"/>
			</clipPath>
			<g clip-path="url(#SVGID_6_)">
				<circle fill="#C0F8F2" cx="206.721" cy="181.206" r="0.778"/>
				<circle fill="#C0F8F2" cx="212.022" cy="180.318" r="0.777"/>
				<circle fill="#C0F8F2" cx="217.323" cy="179.431" r="0.778"/>
				<circle fill="#C0F8F2" cx="222.623" cy="178.542" r="0.778"/>
				<circle fill="#C0F8F2" cx="227.924" cy="177.656" r="0.777"/>
				<circle fill="#C0F8F2" cx="233.225" cy="176.767" r="0.778"/>
				<circle fill="#C0F8F2" cx="209.954" cy="184.237" r="0.777"/>
				<circle fill="#C0F8F2" cx="215.254" cy="183.35" r="0.777"/>
				<circle fill="#C0F8F2" cx="220.555" cy="182.462" r="0.778"/>
				<circle fill="#C0F8F2" cx="225.856" cy="181.573" r="0.777"/>
				<circle fill="#C0F8F2" cx="231.157" cy="180.686" r="0.777"/>
				<circle fill="#C0F8F2" cx="236.458" cy="179.798" r="0.778"/>
				<circle fill="#C0F8F2" cx="207.938" cy="188.475" r="0.777"/>
				<circle fill="#C0F8F2" cx="213.239" cy="187.587" r="0.778"/>
				<circle fill="#C0F8F2" cx="218.54" cy="186.7" r="0.778"/>
				<circle fill="#C0F8F2" cx="223.84" cy="185.812" r="0.777"/>
				<circle fill="#C0F8F2" cx="229.142" cy="184.924" r="0.778"/>
				<circle fill="#C0F8F2" cx="234.443" cy="184.037" r="0.777"/>
				<circle fill="#C0F8F2" cx="211.171" cy="191.507" r="0.778"/>
				<circle fill="#C0F8F2" cx="216.472" cy="190.618" r="0.777"/>
				<circle fill="#C0F8F2" cx="221.772" cy="189.731" r="0.778"/>
				<circle fill="#C0F8F2" cx="227.073" cy="188.843" r="0.777"/>
				<circle fill="#C0F8F2" cx="232.374" cy="187.955" r="0.778"/>
				<circle fill="#C0F8F2" cx="237.675" cy="187.068" r="0.778"/>
				<circle fill="#C0F8F2" cx="209.156" cy="195.744" r="0.777"/>
				<circle fill="#C0F8F2" cx="214.457" cy="194.857" r="0.777"/>
				<circle fill="#C0F8F2" cx="219.757" cy="193.969" r="0.778"/>
				<path fill="#C0F8F2" d="M225.825,192.953c0.071,0.423-0.215,0.824-0.639,0.896c-0.423,0.072-0.823-0.214-0.894-0.638
					c-0.073-0.424,0.214-0.825,0.637-0.895C225.353,192.243,225.754,192.529,225.825,192.953z"/>
				<circle fill="#C0F8F2" cx="230.359" cy="192.194" r="0.778"/>
				<circle fill="#C0F8F2" cx="235.66" cy="191.305" r="0.777"/>
				<circle fill="#C0F8F2" cx="212.388" cy="198.776" r="0.777"/>
				<circle fill="#C0F8F2" cx="217.689" cy="197.888" r="0.777"/>
				<circle fill="#C0F8F2" cx="222.99" cy="197" r="0.778"/>
				<circle fill="#C0F8F2" cx="228.291" cy="196.113" r="0.777"/>
				<circle fill="#C0F8F2" cx="233.591" cy="195.224" r="0.777"/>
				<circle fill="#C0F8F2" cx="238.892" cy="194.337" r="0.778"/>
				<circle fill="#C0F8F2" cx="210.355" cy="202.904" r="0.777"/>
				<circle fill="#C0F8F2" cx="215.656" cy="202.016" r="0.777"/>
				<circle fill="#C0F8F2" cx="220.957" cy="201.128" r="0.778"/>
				<circle fill="#C0F8F2" cx="226.257" cy="200.24" r="0.778"/>
				<circle fill="#C0F8F2" cx="231.558" cy="199.352" r="0.777"/>
				<circle fill="#C0F8F2" cx="236.858" cy="198.466" r="0.778"/>
				<circle fill="#C0F8F2" cx="213.586" cy="205.935" r="0.778"/>
				<circle fill="#C0F8F2" cx="218.888" cy="205.047" r="0.777"/>
				<circle fill="#C0F8F2" cx="224.189" cy="204.16" r="0.778"/>
				<circle fill="#C0F8F2" cx="229.49" cy="203.272" r="0.777"/>
				<circle fill="#C0F8F2" cx="234.791" cy="202.383" r="0.777"/>
				<circle fill="#C0F8F2" cx="240.091" cy="201.496" r="0.778"/>
				<circle fill="#C0F8F2" cx="211.572" cy="210.173" r="0.777"/>
				<circle fill="#C0F8F2" cx="216.873" cy="209.285" r="0.778"/>
				<circle fill="#C0F8F2" cx="222.174" cy="208.398" r="0.778"/>
				<circle fill="#C0F8F2" cx="227.474" cy="207.51" r="0.777"/>
				<circle fill="#C0F8F2" cx="232.775" cy="206.623" r="0.778"/>
				<circle fill="#C0F8F2" cx="238.076" cy="205.734" r="0.778"/>
				<circle fill="#C0F8F2" cx="214.805" cy="213.204" r="0.778"/>
				<circle fill="#C0F8F2" cx="220.106" cy="212.317" r="0.777"/>
				<circle fill="#C0F8F2" cx="225.406" cy="211.428" r="0.778"/>
				<circle fill="#C0F8F2" cx="230.707" cy="210.541" r="0.777"/>
				<circle fill="#C0F8F2" cx="236.008" cy="209.654" r="0.778"/>
				<circle fill="#C0F8F2" cx="241.309" cy="208.765" r="0.778"/>
				<circle fill="#C0F8F2" cx="212.79" cy="217.443" r="0.777"/>
				<circle fill="#C0F8F2" cx="218.09" cy="216.554" r="0.777"/>
				<circle fill="#C0F8F2" cx="223.391" cy="215.668" r="0.778"/>
				<circle fill="#C0F8F2" cx="228.691" cy="214.779" r="0.778"/>
				<circle fill="#C0F8F2" cx="233.993" cy="213.892" r="0.778"/>
				<circle fill="#C0F8F2" cx="239.294" cy="213.004" r="0.778"/>
				<circle fill="#C0F8F2" cx="216.022" cy="220.472" r="0.777"/>
				<circle fill="#C0F8F2" cx="221.323" cy="219.586" r="0.777"/>
				<circle fill="#C0F8F2" cx="226.624" cy="218.698" r="0.778"/>
				<circle fill="#C0F8F2" cx="231.924" cy="217.81" r="0.777"/>
				<circle fill="#C0F8F2" cx="237.225" cy="216.922" r="0.777"/>
				<circle fill="#C0F8F2" cx="242.526" cy="216.035" r="0.778"/>
				<circle fill="#C0F8F2" cx="213.989" cy="224.6" r="0.777"/>
				<circle fill="#C0F8F2" cx="219.29" cy="223.714" r="0.777"/>
				<circle fill="#C0F8F2" cx="224.59" cy="222.825" r="0.778"/>
				<circle fill="#C0F8F2" cx="229.891" cy="221.938" r="0.778"/>
				<circle fill="#C0F8F2" cx="235.192" cy="221.05" r="0.777"/>
				<circle fill="#C0F8F2" cx="240.493" cy="220.162" r="0.778"/>
				<circle fill="#C0F8F2" cx="217.221" cy="227.632" r="0.778"/>
				<circle fill="#C0F8F2" cx="222.521" cy="226.745" r="0.777"/>
				<circle fill="#C0F8F2" cx="227.823" cy="225.856" r="0.778"/>
				<circle fill="#C0F8F2" cx="233.124" cy="224.969" r="0.777"/>
				<circle fill="#C0F8F2" cx="238.424" cy="224.081" r="0.777"/>
				<circle fill="#C0F8F2" cx="243.725" cy="223.194" r="0.778"/>
				<circle fill="#C0F8F2" cx="215.206" cy="231.87" r="0.777"/>
				<circle fill="#C0F8F2" cx="220.507" cy="230.983" r="0.778"/>
				<circle fill="#C0F8F2" cx="225.808" cy="230.095" r="0.778"/>
				<circle fill="#C0F8F2" cx="231.108" cy="229.207" r="0.777"/>
				<circle fill="#C0F8F2" cx="236.409" cy="228.319" r="0.778"/>
				<circle fill="#C0F8F2" cx="241.709" cy="227.432" r="0.778"/>
				<circle fill="#C0F8F2" cx="218.438" cy="234.901" r="0.778"/>
				<circle fill="#C0F8F2" cx="223.739" cy="234.014" r="0.777"/>
				<circle fill="#C0F8F2" cx="229.04" cy="233.126" r="0.778"/>
				<circle fill="#C0F8F2" cx="234.341" cy="232.238" r="0.778"/>
				<circle fill="#C0F8F2" cx="239.642" cy="231.351" r="0.777"/>
				<circle fill="#C0F8F2" cx="244.942" cy="230.463" r="0.778"/>
				<circle fill="#C0F8F2" cx="216.423" cy="239.14" r="0.777"/>
				<circle fill="#C0F8F2" cx="221.724" cy="238.251" r="0.777"/>
				<circle fill="#C0F8F2" cx="227.025" cy="237.364" r="0.778"/>
				<circle fill="#C0F8F2" cx="232.326" cy="236.477" r="0.777"/>
				<circle fill="#C0F8F2" cx="237.626" cy="235.588" r="0.777"/>
				<circle fill="#C0F8F2" cx="242.927" cy="234.7" r="0.778"/>
				<circle fill="#C0F8F2" cx="219.656" cy="242.171" r="0.777"/>
				<circle fill="#C0F8F2" cx="224.957" cy="241.282" r="0.777"/>
				<circle fill="#C0F8F2" cx="230.257" cy="240.395" r="0.778"/>
				<circle fill="#C0F8F2" cx="235.558" cy="239.507" r="0.777"/>
				<circle fill="#C0F8F2" cx="240.859" cy="238.62" r="0.777"/>
				<circle fill="#C0F8F2" cx="246.16" cy="237.732" r="0.778"/>
				<circle fill="#C0F8F2" cx="217.623" cy="246.299" r="0.777"/>
				<circle fill="#C0F8F2" cx="222.923" cy="245.41" r="0.777"/>
				<circle fill="#C0F8F2" cx="228.224" cy="244.524" r="0.778"/>
				<circle fill="#C0F8F2" cx="233.525" cy="243.635" r="0.777"/>
				<circle fill="#C0F8F2" cx="238.826" cy="242.748" r="0.777"/>
				<circle fill="#C0F8F2" cx="244.126" cy="241.861" r="0.778"/>
				<circle fill="#C0F8F2" cx="220.854" cy="249.33" r="0.778"/>
				<circle fill="#C0F8F2" cx="226.155" cy="248.442" r="0.777"/>
				<circle fill="#C0F8F2" cx="231.457" cy="247.555" r="0.778"/>
				<circle fill="#C0F8F2" cx="236.757" cy="246.666" r="0.777"/>
				<circle fill="#C0F8F2" cx="242.058" cy="245.779" r="0.777"/>
				<circle fill="#C0F8F2" cx="247.359" cy="244.891" r="0.778"/>
				<circle fill="#C0F8F2" cx="218.839" cy="253.568" r="0.777"/>
				<circle fill="#C0F8F2" cx="224.141" cy="252.681" r="0.778"/>
				<circle fill="#C0F8F2" cx="229.441" cy="251.793" r="0.778"/>
				<circle fill="#C0F8F2" cx="234.742" cy="250.906" r="0.777"/>
				<circle fill="#C0F8F2" cx="240.043" cy="250.017" r="0.778"/>
				<circle fill="#C0F8F2" cx="245.344" cy="249.129" r="0.778"/>
				<circle fill="#C0F8F2" cx="222.072" cy="256.6" r="0.778"/>
				<circle fill="#C0F8F2" cx="227.373" cy="255.712" r="0.777"/>
				<circle fill="#C0F8F2" cx="232.674" cy="254.824" r="0.778"/>
				<circle fill="#C0F8F2" cx="237.975" cy="253.937" r="0.778"/>
				<path fill="#C0F8F2" d="M244.042,252.92c0.071,0.424-0.214,0.825-0.639,0.896c-0.424,0.07-0.825-0.216-0.896-0.64
					c-0.071-0.421,0.215-0.822,0.639-0.896C243.57,252.21,243.971,252.496,244.042,252.92z"/>
				<circle fill="#C0F8F2" cx="248.576" cy="252.162" r="0.778"/>
				<path fill="#C0F8F2" d="M220.824,260.709c0.071,0.424-0.216,0.825-0.638,0.896c-0.424,0.07-0.824-0.216-0.896-0.64
					c-0.071-0.421,0.214-0.822,0.638-0.896C220.352,259.999,220.753,260.285,220.824,260.709z"/>
				<circle fill="#C0F8F2" cx="225.358" cy="259.951" r="0.777"/>
				<circle fill="#C0F8F2" cx="230.659" cy="259.062" r="0.778"/>
				<circle fill="#C0F8F2" cx="235.959" cy="258.175" r="0.777"/>
				<circle fill="#C0F8F2" cx="241.26" cy="257.287" r="0.777"/>
				<circle fill="#C0F8F2" cx="246.561" cy="256.398" r="0.778"/>
				<circle fill="#C0F8F2" cx="223.289" cy="263.869" r="0.778"/>
				<circle fill="#C0F8F2" cx="228.591" cy="262.981" r="0.778"/>
				<path fill="#C0F8F2" d="M234.659,261.965c0.07,0.424-0.216,0.825-0.64,0.896s-0.823-0.216-0.896-0.64
					c-0.07-0.421,0.216-0.822,0.64-0.896C234.186,261.255,234.587,261.541,234.659,261.965z"/>
				<circle fill="#C0F8F2" cx="239.192" cy="261.206" r="0.777"/>
				<circle fill="#C0F8F2" cx="244.493" cy="260.318" r="0.777"/>
				<circle fill="#C0F8F2" cx="249.793" cy="259.43" r="0.778"/>
				<circle fill="#C0F8F2" cx="221.256" cy="267.997" r="0.777"/>
				<circle fill="#C0F8F2" cx="226.557" cy="267.109" r="0.777"/>
				<path fill="#C0F8F2" d="M232.625,266.093c0.07,0.424-0.216,0.825-0.64,0.896s-0.824-0.216-0.896-0.64
					c-0.07-0.421,0.216-0.822,0.64-0.896C232.153,265.384,232.554,265.669,232.625,266.093z"/>
				<circle fill="#C0F8F2" cx="237.158" cy="265.333" r="0.778"/>
				<circle fill="#C0F8F2" cx="242.459" cy="264.446" r="0.777"/>
				<circle fill="#C0F8F2" cx="247.76" cy="263.559" r="0.778"/>
				<circle fill="#C0F8F2" cx="224.488" cy="271.028" r="0.778"/>
				<circle fill="#C0F8F2" cx="229.789" cy="270.141" r="0.777"/>
				<circle fill="#C0F8F2" cx="235.09" cy="269.252" r="0.778"/>
				<circle fill="#C0F8F2" cx="240.391" cy="268.365" r="0.777"/>
				<circle fill="#C0F8F2" cx="245.692" cy="267.477" r="0.777"/>
				<circle fill="#C0F8F2" cx="250.992" cy="266.589" r="0.778"/>
				<circle fill="#C0F8F2" cx="222.474" cy="275.266" r="0.778"/>
				<circle fill="#C0F8F2" cx="227.775" cy="274.378" r="0.777"/>
				<circle fill="#C0F8F2" cx="233.075" cy="273.491" r="0.778"/>
				<circle fill="#C0F8F2" cx="238.375" cy="272.603" r="0.777"/>
				<circle fill="#C0F8F2" cx="243.677" cy="271.716" r="0.778"/>
				<circle fill="#C0F8F2" cx="248.978" cy="270.827" r="0.778"/>
				<circle fill="#C0F8F2" cx="225.706" cy="278.297" r="0.778"/>
				<circle fill="#C0F8F2" cx="231.007" cy="277.41" r="0.777"/>
				<circle fill="#C0F8F2" cx="236.308" cy="276.521" r="0.778"/>
				<circle fill="#C0F8F2" cx="241.608" cy="275.634" r="0.778"/>
				<circle fill="#C0F8F2" cx="246.91" cy="274.747" r="0.777"/>
				<circle fill="#C0F8F2" cx="252.21" cy="273.858" r="0.778"/>
				<circle fill="#C0F8F2" cx="223.691" cy="282.536" r="0.777"/>
				<circle fill="#C0F8F2" cx="228.992" cy="281.647" r="0.777"/>
				<circle fill="#C0F8F2" cx="234.292" cy="280.76" r="0.778"/>
				<circle fill="#C0F8F2" cx="239.593" cy="279.872" r="0.777"/>
				<circle fill="#C0F8F2" cx="244.894" cy="278.985" r="0.777"/>
				<circle fill="#C0F8F2" cx="250.195" cy="278.097" r="0.778"/>
				<circle fill="#C0F8F2" cx="226.923" cy="285.566" r="0.778"/>
				<circle fill="#C0F8F2" cx="232.224" cy="284.679" r="0.777"/>
				<circle fill="#C0F8F2" cx="237.525" cy="283.792" r="0.778"/>
				<circle fill="#C0F8F2" cx="242.826" cy="282.903" r="0.777"/>
				<circle fill="#C0F8F2" cx="248.126" cy="282.016" r="0.777"/>
				<circle fill="#C0F8F2" cx="253.427" cy="281.128" r="0.778"/>
				<circle fill="#C0F8F2" cx="224.889" cy="289.694" r="0.778"/>
				<circle fill="#C0F8F2" cx="230.19" cy="288.807" r="0.777"/>
				<circle fill="#C0F8F2" cx="235.492" cy="287.92" r="0.778"/>
				<circle fill="#C0F8F2" cx="240.792" cy="287.031" r="0.777"/>
				<circle fill="#C0F8F2" cx="246.093" cy="286.144" r="0.777"/>
				<circle fill="#C0F8F2" cx="251.394" cy="285.256" r="0.778"/>
				<circle fill="#C0F8F2" cx="228.122" cy="292.726" r="0.778"/>
				<circle fill="#C0F8F2" cx="233.423" cy="291.838" r="0.777"/>
				<circle fill="#C0F8F2" cx="238.724" cy="290.95" r="0.778"/>
				<path fill="#C0F8F2" d="M244.792,289.934c0.07,0.424-0.215,0.825-0.64,0.896c-0.422,0.07-0.823-0.215-0.895-0.64
					c-0.07-0.421,0.215-0.822,0.639-0.895C244.32,289.225,244.721,289.51,244.792,289.934z"/>
				<circle fill="#C0F8F2" cx="249.325" cy="289.176" r="0.777"/>
				<circle fill="#C0F8F2" cx="254.626" cy="288.287" r="0.778"/>
				<circle fill="#C0F8F2" cx="226.107" cy="296.965" r="0.778"/>
				<circle fill="#C0F8F2" cx="231.408" cy="296.076" r="0.777"/>
				<circle fill="#C0F8F2" cx="236.709" cy="295.188" r="0.778"/>
				<circle fill="#C0F8F2" cx="242.009" cy="294.301" r="0.777"/>
				<path fill="#C0F8F2" d="M248.078,293.284c0.071,0.424-0.215,0.825-0.639,0.896s-0.825-0.216-0.896-0.64
					c-0.071-0.421,0.216-0.822,0.639-0.896C247.605,292.574,248.006,292.86,248.078,293.284z"/>
				<circle fill="#C0F8F2" cx="252.611" cy="292.525" r="0.778"/>
				<circle fill="#C0F8F2" cx="229.339" cy="299.995" r="0.778"/>
				<path fill="#C0F8F2" d="M235.407,298.979c0.071,0.424-0.214,0.825-0.639,0.896c-0.422,0.07-0.823-0.215-0.894-0.64
					c-0.071-0.421,0.214-0.822,0.637-0.896C234.935,298.27,235.336,298.555,235.407,298.979z"/>
				<circle fill="#C0F8F2" cx="239.941" cy="298.219" r="0.778"/>
				<circle fill="#C0F8F2" cx="245.242" cy="297.332" r="0.778"/>
				<circle fill="#C0F8F2" cx="250.543" cy="296.444" r="0.777"/>
				<circle fill="#C0F8F2" cx="255.844" cy="295.557" r="0.778"/>
				<circle fill="#C0F8F2" cx="227.325" cy="304.233" r="0.777"/>
				<circle fill="#C0F8F2" cx="232.625" cy="303.346" r="0.777"/>
				<path fill="#C0F8F2" d="M238.694,302.329c0.07,0.424-0.216,0.825-0.64,0.896s-0.824-0.216-0.896-0.64
					c-0.07-0.421,0.216-0.822,0.64-0.896C238.221,301.619,238.623,301.905,238.694,302.329z"/>
				<circle fill="#C0F8F2" cx="243.227" cy="301.57" r="0.777"/>
				<circle fill="#C0F8F2" cx="248.528" cy="300.682" r="0.777"/>
				<circle fill="#C0F8F2" cx="253.829" cy="299.794" r="0.778"/>
				<circle fill="#C0F8F2" cx="230.557" cy="307.264" r="0.778"/>
				<circle fill="#C0F8F2" cx="235.857" cy="306.377" r="0.777"/>
				<circle fill="#C0F8F2" cx="241.159" cy="305.488" r="0.778"/>
				<circle fill="#C0F8F2" cx="246.459" cy="304.602" r="0.777"/>
				<circle fill="#C0F8F2" cx="251.761" cy="303.713" r="0.778"/>
				<circle fill="#C0F8F2" cx="257.061" cy="302.826" r="0.778"/>
				<circle fill="#C0F8F2" cx="228.523" cy="311.392" r="0.778"/>
				<circle fill="#C0F8F2" cx="233.824" cy="310.505" r="0.777"/>
				<circle fill="#C0F8F2" cx="239.125" cy="309.617" r="0.778"/>
				<circle fill="#C0F8F2" cx="244.426" cy="308.729" r="0.777"/>
				<circle fill="#C0F8F2" cx="249.727" cy="307.841" r="0.777"/>
				<circle fill="#C0F8F2" cx="255.028" cy="306.954" r="0.778"/>
				<circle fill="#C0F8F2" cx="231.756" cy="314.424" r="0.778"/>
				<circle fill="#C0F8F2" cx="237.056" cy="313.535" r="0.777"/>
				<circle fill="#C0F8F2" cx="242.357" cy="312.648" r="0.778"/>
				<circle fill="#C0F8F2" cx="247.658" cy="311.761" r="0.778"/>
				<circle fill="#C0F8F2" cx="252.959" cy="310.872" r="0.778"/>
				<circle fill="#C0F8F2" cx="258.26" cy="309.985" r="0.778"/>
				<circle fill="#C0F8F2" cx="229.741" cy="318.661" r="0.778"/>
				<circle fill="#C0F8F2" cx="235.042" cy="317.774" r="0.777"/>
				<circle fill="#C0F8F2" cx="240.343" cy="316.886" r="0.778"/>
				<circle fill="#C0F8F2" cx="245.644" cy="315.999" r="0.778"/>
				<circle fill="#C0F8F2" cx="250.945" cy="315.111" r="0.777"/>
				<circle fill="#C0F8F2" cx="256.245" cy="314.223" r="0.778"/>
				<circle fill="#C0F8F2" cx="232.973" cy="321.693" r="0.778"/>
				<circle fill="#C0F8F2" cx="238.274" cy="320.806" r="0.777"/>
				<circle fill="#C0F8F2" cx="243.575" cy="319.917" r="0.777"/>
				<circle fill="#C0F8F2" cx="248.875" cy="319.029" r="0.778"/>
				<circle fill="#C0F8F2" cx="254.176" cy="318.142" r="0.778"/>
				<circle fill="#C0F8F2" cx="259.477" cy="317.254" r="0.777"/>
				<circle fill="#C0F8F2" cx="230.958" cy="325.931" r="0.777"/>
				<circle fill="#C0F8F2" cx="236.259" cy="325.043" r="0.777"/>
				<circle fill="#C0F8F2" cx="241.56" cy="324.156" r="0.778"/>
				<circle fill="#C0F8F2" cx="246.861" cy="323.267" r="0.777"/>
				<circle fill="#C0F8F2" cx="252.162" cy="322.38" r="0.777"/>
				<circle fill="#C0F8F2" cx="257.462" cy="321.492" r="0.778"/>
				<circle fill="#C0F8F2" cx="234.19" cy="328.962" r="0.778"/>
				<circle fill="#C0F8F2" cx="239.492" cy="328.074" r="0.777"/>
				<circle fill="#C0F8F2" cx="244.793" cy="327.187" r="0.778"/>
				<path fill="#C0F8F2" d="M250.86,326.17c0.071,0.424-0.215,0.825-0.639,0.896c-0.423,0.07-0.823-0.216-0.895-0.64
					c-0.071-0.421,0.214-0.822,0.638-0.896C250.388,325.46,250.789,325.746,250.86,326.17z"/>
				<circle fill="#C0F8F2" cx="255.394" cy="325.412" r="0.778"/>
				<circle fill="#C0F8F2" cx="260.695" cy="324.523" r="0.778"/>
				<circle fill="#C0F8F2" cx="232.157" cy="333.09" r="0.778"/>
				<circle fill="#C0F8F2" cx="237.458" cy="332.202" r="0.777"/>
				<circle fill="#C0F8F2" cx="242.759" cy="331.314" r="0.778"/>
				<path fill="#C0F8F2" d="M248.827,330.298c0.07,0.424-0.216,0.825-0.638,0.896c-0.425,0.07-0.824-0.216-0.896-0.64
					c-0.072-0.421,0.214-0.822,0.638-0.893C248.355,329.589,248.756,329.874,248.827,330.298z"/>
				<circle fill="#C0F8F2" cx="253.361" cy="329.54" r="0.777"/>
				<circle fill="#C0F8F2" cx="258.661" cy="328.651" r="0.778"/>
				<circle fill="#C0F8F2" cx="235.39" cy="336.122" r="0.778"/>
				<circle fill="#C0F8F2" cx="240.69" cy="335.234" r="0.777"/>
				<circle fill="#C0F8F2" cx="245.991" cy="334.346" r="0.778"/>
				<circle fill="#C0F8F2" cx="251.292" cy="333.458" r="0.777"/>
				<circle fill="#C0F8F2" cx="256.593" cy="332.57" r="0.778"/>
				<path fill="#C0F8F2" d="M262.661,331.554c0.071,0.424-0.215,0.825-0.639,0.896s-0.824-0.216-0.896-0.64
					c-0.07-0.421,0.216-0.822,0.639-0.895C262.189,330.845,262.59,331.13,262.661,331.554z"/>
				<circle fill="#C0F8F2" cx="233.375" cy="340.359" r="0.778"/>
				<path fill="#C0F8F2" d="M239.442,339.343c0.071,0.424-0.215,0.825-0.637,0.896c-0.425,0.07-0.825-0.216-0.896-0.64
					c-0.071-0.421,0.214-0.822,0.637-0.893C238.97,338.634,239.372,338.919,239.442,339.343z"/>
				<circle fill="#C0F8F2" cx="243.977" cy="338.584" r="0.778"/>
				<circle fill="#C0F8F2" cx="249.277" cy="337.696" r="0.777"/>
				<circle fill="#C0F8F2" cx="254.578" cy="336.809" r="0.778"/>
				<circle fill="#C0F8F2" cx="259.879" cy="335.921" r="0.778"/>
				<circle fill="#C0F8F2" cx="236.607" cy="343.391" r="0.778"/>
				<circle fill="#C0F8F2" cx="241.908" cy="342.503" r="0.777"/>
				<circle fill="#C0F8F2" cx="247.208" cy="341.615" r="0.777"/>
				<path fill="#C0F8F2" d="M253.277,340.599c0.071,0.424-0.216,0.825-0.639,0.896c-0.424,0.07-0.825-0.216-0.896-0.64
					c-0.071-0.421,0.215-0.822,0.639-0.896C252.805,339.89,253.206,340.175,253.277,340.599z"/>
				<circle fill="#C0F8F2" cx="257.811" cy="339.839" r="0.778"/>
				<circle fill="#C0F8F2" cx="263.111" cy="338.952" r="0.777"/>
				<circle fill="#C0F8F2" cx="234.592" cy="347.629" r="0.777"/>
				<circle fill="#C0F8F2" cx="239.893" cy="346.741" r="0.777"/>
				<circle fill="#C0F8F2" cx="245.194" cy="345.854" r="0.778"/>
				<circle fill="#C0F8F2" cx="250.495" cy="344.966" r="0.777"/>
				<path fill="#C0F8F2" d="M256.562,343.949c0.07,0.424-0.215,0.825-0.638,0.896c-0.424,0.07-0.825-0.216-0.896-0.64
					c-0.071-0.421,0.214-0.822,0.638-0.896C256.091,343.239,256.491,343.525,256.562,343.949z"/>
				<circle fill="#C0F8F2" cx="261.096" cy="343.19" r="0.778"/>
				<circle fill="#C0F8F2" cx="237.824" cy="350.66" r="0.778"/>
				<path fill="#C0F8F2" d="M243.891,349.644c0.072,0.424-0.214,0.825-0.638,0.896c-0.423,0.07-0.824-0.216-0.895-0.64
					c-0.072-0.421,0.215-0.822,0.638-0.896C243.42,348.935,243.822,349.22,243.891,349.644z"/>
				<circle fill="#C0F8F2" cx="248.426" cy="348.884" r="0.778"/>
				<circle fill="#C0F8F2" cx="253.727" cy="347.997" r="0.777"/>
				<circle fill="#C0F8F2" cx="259.028" cy="347.108" r="0.778"/>
				<circle fill="#C0F8F2" cx="264.328" cy="346.222" r="0.778"/>
			</g>
		</g>
	</g>
	<g>
		<path fill-rule="evenodd" clip-rule="evenodd" fill="#FFE500" d="M822.352,331.422c4.296,1.783,8.978,2.401,12.794,5.667
			c3.022,2.584,5.215,5.479,7.415,8.729c4.175,6.164,4.646,11.719-0.36,17.475c-0.629,0.723-0.895,1.759-0.789,2.979
			c2.314-3.323,4.71-6.597,6.879-10.012c0.435-0.687,0.284-2.047-0.081-2.883c-1.813-4.141-3.567-8.333-5.804-12.247
			c-1.025-1.793-3.058-3.04-4.723-4.428c-1.181-0.984-2.511-1.792-3.586-3.029c4.544,0.755,8.861,2.208,12.099,5.523
			c2.851,2.92,5.308,6.259,7.673,9.6c0.708,0.999,0.957,2.738,0.66,3.954c-0.816,3.344-2.036,6.592-3.098,9.876
			c0.251,0.109,0.501,0.22,0.751,0.331c1.687-4.014,3.438-8.003,4.986-12.069c0.205-0.537-0.519-1.524-0.973-2.195
			c-1.002-1.479-2.13-2.87-3.163-4.327c-3.333-4.695-6.211-9.894-12.718-11.032c5.747,0.701,9.831,3.854,13.986,7.611
			c4.886,4.415,6.826,8.815,4.183,14.995c-0.543,1.272-0.572,2.766-0.145,4.32c1.272-3.968,2.622-7.915,3.751-11.923
			c0.196-0.705-0.329-1.854-0.88-2.487c-3.177-3.647-6.412-7.243-9.743-10.752c-0.827-0.871-2.072-1.348-2.993-1.924
			c3.41-0.677,8.649,0.032,10.665,1.597c3.013,2.343,5.986,4.735,9.223,6.782c-4.403-3.539-6.771-9.704-13.306-11.049
			c2.792,0.411,5.763,0.361,8.325,1.358c2.717,1.058,5.044,3.113,7.669,4.516c-3.576-5.126-8.159-7.456-14.836-8.234
			c9.145-3.325,18.293-6.648,28.181-10.242c-1.509-0.358-2.19-0.52-3.242-0.771c1.566-0.671,2.848-1.221,4.129-1.77
			c-0.044-0.279-0.091-0.559-0.135-0.838c-4.497,0.573-9.156-1.3-13.526,1.813c-0.913,0.651-2.468,0.538-3.708,0.471
			c-0.21-0.012-0.676-2.21-0.435-2.347c1.078-0.606,2.359-1.08,3.59-1.143c2.972-0.152,5.957-0.05,9.014-0.798
			c-1.277-0.233-2.549-0.504-3.83-0.694c-5.163-0.767-10.318-1.596-15.499-2.219c-2.326-0.279-4.704-0.163-7.06-0.158
			c-7.47,0.013-14.938,0.069-22.408,0.08c-1.361,0.001-2.887-0.554-4.046-0.104c-1.378,0.533-2.927,1.64-3.541,2.914
			c-1.302,2.689-1.935,5.694-3.041,8.491c-1.56,3.943-1.747,7.564,1.733,10.639L822.352,331.422z"/>
		<g>
			<g>
				<path fill-rule="evenodd" clip-rule="evenodd" fill="#238823" d="M819.804,376.703c-4.608-5.138-8.611-11.033-16.223-12.572
					c-0.26,0.925-0.527,1.881-0.769,2.738c-0.732-3.476-1.466-6.964-2.305-10.949c-6.688,3.446-12.087-1.923-18.472-1.332
					c1.724,6.252,4.648,11.521,9.933,14.971c6.622,4.321,13.923,7.231,21.785,8.451c1.924,0.301,3.937,0.045,5.907,0.045
					C819.709,377.605,819.756,377.153,819.804,376.703z"/>
				<path fill-rule="evenodd" clip-rule="evenodd" fill="#238823" d="M822.39,331.469c-3.838-1.081-4.667-6.176-2.671-10.496
					c0.79-1.71,1.714-3.38,2.276-5.163c0.558-1.765,0.736-3.649,1.239-6.316c-3.989,0.436-7.762,0.47-11.325,1.351
					c-3.183,0.788-3.817,3.843-4.053,6.808c-0.169,2.14-0.308,4.292-0.662,6.403c-0.604,3.576,1.049,7.276,4.244,9.113
					c2.751,1.579,8.353,1.287,10.499-0.604c0.268-0.236,0.281-0.755,0.414-1.143L822.39,331.469z"/>
				<path fill-rule="evenodd" clip-rule="evenodd" fill="#238823" d="M805.335,340.891c1.186-1.259,2.372-2.518,3.65-3.875
					c-8.561-4.677-11.186-12.715-13.783-20.797c-4.481,0.323-10.861,6.441-10.658,10.713c0.067,1.396,1.236,3.229,2.449,3.994
					c4.607,2.918,9.326,5.519,12.613,10.172c1.525,2.157,3.811,0.78,5.702-0.178L805.335,340.891z"/>
				<path fill-rule="evenodd" clip-rule="evenodd" fill="#238823" d="M802.607,343.615c-6.417-4.942-12.632-9.73-19.162-14.762
					c-0.686,1.585-1.285,2.774-1.726,4.021c-2.386,6.771-1.942,7.505,4.77,9.91c2.535,0.909,5.165,1.98,7.264,3.608
					C799.25,350.66,800.616,350.34,802.607,343.615z"/>
				<path fill-rule="evenodd" clip-rule="evenodd" fill="#238823" d="M813.259,335.144c-6.486-3.789-7.494-6.504-6.118-13.586
					c0.623-3.211,0.634-6.541,0.932-9.926c-2.287-0.597-9.428,1.472-10.774,3.69c-0.57,0.938-0.872,2.592-0.43,3.5
					c2.311,4.754,4.594,9.576,7.506,13.963C806.163,335.48,809.345,336.375,813.259,335.144z"/>
			</g>
		</g>
		<path fill-rule="evenodd" clip-rule="evenodd" fill="#238823" d="M780.66,341.81c0,2.86-0.151,5.162,0.038,7.435
			c0.211,2.477,1.242,4.25,4.154,4.683c3.61,0.537,7.129,1.67,10.73,2.292c1.866,0.324,3.621-0.283,4.084-2.513
			c0.454-2.176-0.403-3.253-2.572-4.212c-4.356-1.926-8.438-4.471-12.685-6.658C783.427,342.329,782.236,342.227,780.66,341.81z"/>
		<path fill-rule="evenodd" clip-rule="evenodd" fill="#ED1C24" d="M790.38,289.174c-1.031,1.136-2.247,2.15-3.061,3.427
			c-2.889,4.533-0.448,9.597,4.909,9.704c2.979,0.061,6.018-0.771,8.959-1.49c13.359-3.275,26.588-7.199,40.071-9.828
			c11.583-2.259,23.439-2.657,34.893,1.505c2.357,0.855,4.688,1.93,6.813,3.249c3.973,2.468,6.896,5.642,5.285,11.188
			c2.423-2.613,2.763-5.948,0.234-8.494c-2.456-2.475-5.429-4.726-8.588-6.168c-9.101-4.156-18.81-4.889-28.709-4.175
			c-15.455,1.109-30.034,6.059-44.854,9.968c-3.453,0.91-6.931,1.741-10.412,2.546c-2.87,0.662-5.977,0.975-7.688-1.889
			c-1.686-2.822-0.035-5.442,1.82-7.742c0.321-0.398,0.633-0.809,0.949-1.213C790.794,289.564,790.588,289.369,790.38,289.174z"/>
		<path fill-rule="evenodd" clip-rule="evenodd" fill="#FFE500" d="M805.309,340.92c0.245,0.424,0.389,1.071,0.753,1.237
			c3.461,1.596,6.96,3.109,10.321,4.591c-0.515-3.074-3.767-5.925-6.988-5.902c-1.354,0.011-2.706,0.029-4.061,0.045L805.309,340.92
			z"/>
		<path fill-rule="evenodd" clip-rule="evenodd" fill="#FFE500" d="M813.094,336.33c2.554,3.535,4.881,6.756,7.263,10.054
			C821.348,340.658,819.482,337.994,813.094,336.33z"/>
		<path fill-rule="evenodd" clip-rule="evenodd" fill="#FFE500" d="M802.722,347.832c3.844,1.096,7.532,2.146,11.31,3.224
			C811.53,346.094,808.068,345.09,802.722,347.832z"/>
		<path fill-rule="evenodd" clip-rule="evenodd" fill="#FFE500" d="M802.213,353.335c3.636,1.077,6.86,2.031,10.151,3.008
			C810.409,352.028,807.342,351.047,802.213,353.335z"/>
	</g>
	<g>
		<path fill="#28A528" d="M742.858,258.208c0.187-9.969-1.5-20.776-7.632-28.081c-5.993-7.141-16.165-2-22.623,3.758
			c1.701,0.698,3.392,1.44,5.055,2.267C727.546,241.058,736.124,248.627,742.858,258.208z"/>
		<path fill="#28A528" d="M707.605,286.11c-6.048,0.272-12.34,1.78-18.451,3.264c1.816,1.547,3.952,2.799,6.222,3.998
			c6.03,3.194,12.047,5.778,18.955,5.9c1.066,0.021,1.797-1.398,1.154-2.254C713.045,293.762,710.482,289.712,707.605,286.11z"/>
		<path fill="#1684F5" d="M688,256.803c17.498-2.02,36.141,4.448,49.959,15.006c6.412,4.901,12.121,11.705,16.014,19.359
			c-0.913-4.38-2.125-8.546-3.446-12.227c-6.114-16.978-17.686-32.236-34.067-40.364c-14.537-7.216-30.122-9.146-45.082-6.61
			C679.747,237.215,685.618,246.633,688,256.803z"/>
		<path fill="#1684F5" d="M752.439,323.123c1.669-3.756,2.585-7.915,2.968-12.224c-0.476-4.532-1.591-8.969-2.934-13.415
			c-2.828-9.359-8.403-15.55-15.863-21.723c-14.199-11.745-29.379-15.765-48.036-15.727c1.834,10.351-0.012,20.706-6.468,28.208
			c13.48-2.974,27.483-7.98,40.543-2.329c12.391,5.363,20.696,21.502,21.667,35.963c-11.026,9.1-18.688,23.108-18.456,37.518
			c0.022,1.249,1.68,1.628,2.445,0.794c5.602-6.139,13.012-16.678,17.26-23.665c2.962,16.209,10.206,25.548,18.478,31.704
			c0.548,0.406,1.519,0.229,1.6-0.568C767.288,351.744,761.957,335.834,752.439,323.123z"/>
		<path fill="#1684F5" d="M684.864,257.745c-0.429-2.666-1.264-5.297-2.324-7.779c-3.149-7.347-8.799-13.087-15.567-17.122
			c-19.196,4.423-37.07,16.224-49.979,33.745c6.665,13.983,30.765,26.383,57.096,23.1c0.884-0.11,1.769-0.247,2.657-0.395
			c0.814-1.042,1.609-2.101,2.345-3.198c2.654-3.959,4.722-8.312,5.753-12.981C685.983,267.969,685.693,262.9,684.864,257.745z
			 M655.456,263.628c-9.535-2.762-2.62-16.464,4.697-14.003c0.919,0.307,1.84,0.869,2.739,1.739c0.84,0.817,1.35,1.925,1.651,3.055
			C666.115,260.364,661.614,265.413,655.456,263.628z"/>
	</g>
</g>
</svg>
