<?xml version="1.0" encoding="utf-8"?>
<!-- Generator: Adobe Illustrator 16.0.0, SVG Export Plug-In . SVG Version: 6.00 Build 0)  -->
<!DOCTYPE svg PUBLIC "-//W3C//DTD SVG 1.1//EN" "http://www.w3.org/Graphics/SVG/1.1/DTD/svg11.dtd">
<svg version="1.1" id="Layer_1" xmlns="http://www.w3.org/2000/svg" xmlns:xlink="http://www.w3.org/1999/xlink" x="0px" y="0px"
	 width="673.992px" height="362.899px" viewBox="0 0 673.992 362.899" enable-background="new 0 0 673.992 362.899"
	 xml:space="preserve">
<g>
	<path fill="#007337" d="M160.478,19.139c123.048,27.452,223.241,24.292,342.049-2.441c215.389-48.465,210.764,298.014,0,261.245
		c-116.97-20.405-221.213-27.311-342.049,0C-48.869,325.26-58.066-29.617,160.478,19.139L160.478,19.139z"/>
	<path fill="#FFFFFF" d="M564.686,82.314l-13.194,29.768H519.69c-4.106,0-6.88,0.309-8.317,0.958c-1.437,0.617-2.57,1.813-3.34,3.56
		l-1.67,3.593c-0.334,0.684-0.568,1.266-0.734,1.813c-0.168,0.549-0.233,0.993-0.233,1.404c0,2.327,4.376,4.926,13.128,7.732
		c3.439,1.129,6.145,2.019,8.116,2.704c9.653,3.387,16.168,6.638,19.575,9.683c3.373,3.011,5.076,6.774,5.076,11.258
		c0,1.675-0.267,3.694-0.836,6.021c-0.566,2.327-1.335,4.652-2.403,6.912l-12.125,28.363c-3.574,8.281-8.352,13.995-14.23,17.108
		c-5.912,3.114-17.036,4.653-33.337,4.653h-61.763l13.294-29.77h42.122c7.48,0,12.393-0.615,14.73-1.813
		c2.305-1.197,4.108-3.456,5.411-6.811l3.04-7.219c0.468-0.992,0.802-1.984,1.035-2.908c0.234-0.924,0.334-1.746,0.334-2.396
		c0-3.49-4.911-6.944-14.766-10.436c-2.37-0.788-4.175-1.437-5.511-1.917c-11.022-4.002-17.871-7.186-20.544-9.512
		c-2.672-2.326-4.009-5.304-4.009-8.93c0-1.678,0.269-3.56,0.769-5.716c0.534-2.119,1.271-4.275,2.173-6.396l11.656-26.688
		c2.405-5.543,5.914-9.409,10.522-11.668c4.577-2.225,11.925-3.354,21.946-3.354L564.686,82.314L564.686,82.314z M225.129,112.4
		l-26.682,33.735h22.343l7.321-27.04c0-0.067,0.033-0.205,0.101-0.41c0.2-0.787,0.3-1.473,0.3-2.087c0-1.334-0.5-2.431-1.47-3.251
		c-0.417-0.368-0.906-0.656-1.451-0.862l0.256-1.231L225.129,112.4L225.129,112.4z M172.946,178.38l-31.118,39.349H89.763
		L201.049,82.791l30.781-0.378l0.021-0.099h8.04l4.112-0.05l-0.032,0.05h20.25c4.577,0,8.185,1.267,10.89,3.764
		c2.706,2.498,4.075,5.852,4.075,10.061c0,0.958-0.065,1.915-0.232,2.907s-0.436,2.088-0.735,3.217l-32.703,115.581h-44.144
		l10.687-39.464H172.946L172.946,178.38z M368.551,198.101c-3.273,7.424-7.35,12.557-12.292,15.431
		c-4.944,2.874-12.627,4.313-23.051,4.313h-85.745l60.093-135.529h85.146c5.88,0,10.489,1.335,13.863,4.003
		c3.374,2.669,5.044,6.364,5.044,11.052c0,1.198-0.167,2.499-0.534,3.9c-0.366,1.403-0.936,2.909-1.704,4.517l-15.767,35.688
		c-1.703,4.004-3.842,6.809-6.413,8.348c-2.571,1.574-6.28,2.361-11.123,2.361h-0.97c2.339,1.539,4.076,3.285,5.177,5.27
		c1.104,1.984,1.672,4.242,1.672,6.775c0,1.196-0.201,2.531-0.602,4.036c-0.368,1.505-0.937,3.046-1.639,4.585L368.551,198.101
		L368.551,198.101z M328.6,188.074l7.617-18.031c0.2-0.409,0.366-0.854,0.467-1.3c0.1-0.479,0.134-0.959,0.134-1.401
		c0-1.746-0.669-3.251-2.004-4.482c-1.337-1.232-3.007-1.848-5.045-1.848h-11.357l-11.825,27.063H328.6L328.6,188.074z
		 M330.638,133.056h22.247l5.377-12.934c0.201-0.41,0.367-0.819,0.469-1.265c0.101-0.445,0.133-0.89,0.133-1.334
		c0-1.882-0.667-3.423-1.97-4.62c-1.305-1.198-2.974-1.813-4.979-1.813h-11.657L330.638,133.056L330.638,133.056z M476.588,82.314
		l-60.094,135.529h-46.097l60.094-135.529H476.588L476.588,82.314z"/>
	<path d="M641.456,21.502V2.524h-6.921V0h16.623v2.524h-6.918v18.978H641.456L641.456,21.502z M653.969,21.502V0h4.164l4.964,15.221
		c0.46,1.417,0.792,2.479,1.002,3.185c0.238-0.781,0.615-1.933,1.124-3.45L670.273,0h3.72v21.502h-2.669V3.516l-6.127,17.985h-2.502
		l-6.059-18.316v18.316H653.969L653.969,21.502z"/>
</g>
<g>
	<path d="M178.462,361.649l-3.649-10.058h-25.455l-3.738,10.058h-14.418l22.963-59.366h15.843l22.875,59.366H178.462z
		 M162.085,314.922l-9.256,25.545h18.513L162.085,314.922z"/>
	<path d="M198.395,361.649v-59.366h31.24c11.304,0,17.089,7.21,17.089,15.131c0,7.477-4.628,12.461-10.235,13.618
		c6.319,0.979,11.393,7.12,11.393,14.597c0,8.9-5.963,16.021-17.267,16.021H198.395z M233.819,319.639
		c0-3.738-2.67-6.498-6.942-6.498h-15.843v12.906h15.843C231.149,326.048,233.819,323.378,233.819,319.639z M234.976,343.848
		c0-3.738-2.67-6.942-7.654-6.942h-16.288v13.796h16.288C232.128,350.702,234.976,348.121,234.976,343.848z"/>
	<path d="M257.402,361.649v-59.366h12.638v59.366H257.402z"/>
	<path d="M277.781,353.283l6.854-9.612c4.183,4.36,10.68,8.01,18.869,8.01c6.942,0,10.325-3.204,10.325-6.586
		c0-10.503-34.178-3.293-34.178-25.634c0-9.879,8.544-18.067,22.518-18.067c9.435,0,17.267,2.848,23.141,8.277l-7.031,9.256
		c-4.806-4.45-11.215-6.497-17.267-6.497c-5.429,0-8.455,2.403-8.455,5.964c0,9.435,34.088,3.115,34.088,25.277
		c0,10.858-7.743,19.047-23.764,19.047C291.488,362.718,283.3,358.89,277.781,353.283z"/>
	<path d="M353.964,353.283l6.854-9.612c4.183,4.36,10.681,8.01,18.868,8.01c6.943,0,10.325-3.204,10.325-6.586
		c0-10.503-34.178-3.293-34.178-25.634c0-9.879,8.544-18.067,22.519-18.067c9.434,0,17.267,2.848,23.141,8.277l-7.031,9.256
		c-4.807-4.45-11.215-6.497-17.268-6.497c-5.429,0-8.455,2.403-8.455,5.964c0,9.435,34.089,3.115,34.089,25.277
		c0,10.858-7.743,19.047-23.765,19.047C367.67,362.718,359.483,358.89,353.964,353.283z"/>
	<path d="M408.521,332.01c0-18.246,13.796-30.706,31.597-30.706c13.084,0,20.648,7.12,24.832,14.508l-10.858,5.34
		c-2.492-4.807-7.833-8.634-13.974-8.634c-10.77,0-18.602,8.277-18.602,19.492s7.832,19.492,18.602,19.492
		c6.141,0,11.481-3.738,13.974-8.634l10.858,5.252c-4.272,7.387-11.748,14.597-24.832,14.597
		C422.317,362.718,408.521,350.257,408.521,332.01z"/>
	<path d="M524.134,361.649v-41.565l-16.733,41.565h-5.518l-16.733-41.565v41.565h-12.638v-59.366h17.711l14.419,35.869
		l14.419-35.869h17.801v59.366H524.134z"/>
</g>
</svg>
